<svg xmlns="http://www.w3.org/2000/svg" viewBox="0 0 241.4 257.4">
  <defs>
    <style>
      .a {
        fill: none;
        stroke: #ffc09f;
        stroke-miterlimit: 10;
        stroke-width: 2px;
        opacity: 0.5;
      }
    </style>
  </defs>
  <title>pattern-peach</title>
  <line class="a" x1="16.7" y1="48.7" x2="32.7" y2="32.7"/>
  <line class="a" x1="48.7" y1="0.7" x2="144.7" y2="96.7"/>
  <line class="a" x1="64.7" y1="32.7" x2="80.7" y2="16.7"/>
  <line class="a" x1="64.7" y1="64.7" x2="96.7" y2="32.7"/>
  <line class="a" x1="64.7" y1="96.7" x2="80.7" y2="80.7"/>
  <line class="a" x1="64.7" y1="128.7" x2="80.7" y2="112.7"/>
  <line class="a" x1="176.7" y1="192.7" x2="240.7" y2="256.7"/>
  <line class="a" x1="192.7" y1="224.7" x2="224.7" y2="192.7"/>
  <line class="a" x1="96.7" y1="112.7" x2="128.7" y2="80.7"/>
  <line class="a" x1="128.7" y1="112.7" x2="160.7" y2="80.7"/>
  <polyline class="a" points="64.7 112.7 80.7 96.7 128.7 144.7"/>
  <line class="a" x1="192.7" y1="64.7" x2="208.7" y2="48.7"/>
  <line class="a" x1="208.7" y1="80.7" x2="176.7" y2="112.7"/>
  <line class="a" x1="128.7" y1="48.7" x2="160.7" y2="16.7"/>
  <line class="a" x1="160.7" y1="160.7" x2="192.7" y2="128.7"/>
  <line class="a" x1="160.7" y1="112.7" x2="224.7" y2="176.7"/>
  <polyline class="a" points="144.7 160.7 160.7 176.7 144.7 192.7"/>
  <line class="a" x1="144.7" y1="144.7" x2="160.7" y2="128.7"/>
  <line class="a" x1="128.7" y1="128.7" x2="176.7" y2="80.7"/>
  <line class="a" x1="96.7" y1="160.7" x2="112.7" y2="144.7"/>
  <line class="a" x1="112.7" y1="192.7" x2="128.7" y2="176.7"/>
  <line class="a" x1="80.7" y1="208.7" x2="112.7" y2="176.7"/>
  <line class="a" x1="96.7" y1="128.7" x2="112.7" y2="112.7"/>
  <line class="a" x1="32.7" y1="224.7" x2="64.7" y2="192.7"/>
  <line class="a" x1="0.7" y1="144.7" x2="96.7" y2="240.7"/>
  <line class="a" x1="144.7" y1="224.7" x2="160.7" y2="240.7"/>
  <line class="a" x1="208.7" y1="192.7" x2="192.7" y2="208.7"/>
  <line class="a" x1="208.7" y1="176.7" x2="192.7" y2="192.7"/>
  <line class="a" x1="192.7" y1="176.7" x2="224.7" y2="144.7"/>
  <line class="a" x1="144.7" y1="208.7" x2="208.7" y2="144.7"/>
  <line class="a" x1="144.7" y1="64.7" x2="176.7" y2="32.7"/>
  <polyline class="a" points="112.7 32.7 128.7 16.7 192.7 80.7 208.7 64.7"/>
  <line class="a" x1="0.7" y1="16.7" x2="64.7" y2="80.7"/>
  <polyline class="a" points="48.7 96.7 32.7 112.7 0.7 80.7"/>
  <line class="a" x1="64.7" y1="48.7" x2="16.7" y2="96.7"/>
  <line class="a" x1="0.7" y1="96.7" x2="16.7" y2="80.7"/>
  <line class="a" x1="0.7" y1="48.7" x2="32.7" y2="16.7"/>
  <line class="a" x1="48.7" y1="176.7" x2="80.7" y2="144.7"/>
  <line class="a" x1="0.7" y1="160.7" x2="48.7" y2="112.7"/>
  <line class="a" x1="96.7" y1="224.7" x2="80.7" y2="240.7"/>
  <line class="a" x1="80.7" y1="224.7" x2="96.7" y2="208.7"/>
  <line class="a" x1="16.7" y1="176.7" x2="32.7" y2="160.7"/>
  <line class="a" x1="208.7" y1="96.7" x2="224.7" y2="112.7"/>
  <line class="a" x1="112.7" y1="80.7" x2="192.7" y2="0.7"/>
  <line class="a" x1="80.7" y1="32.7" x2="96.7" y2="16.7"/>
  <line class="a" x1="0.7" y1="32.7" x2="16.7" y2="16.7"/>
  <line class="a" x1="208.7" y1="32.7" x2="224.7" y2="16.7"/>
  <line class="a" x1="176.7" y1="48.7" x2="208.7" y2="16.7"/>
  <line class="a" x1="192.7" y1="16.7" x2="224.7" y2="48.7"/>
  <line class="a" x1="0.7" y1="224.7" x2="32.7" y2="192.7"/>
  <line class="a" x1="0.7" y1="208.7" x2="32.7" y2="240.7"/>
  <line class="a" x1="32.7" y1="256.7" x2="64.7" y2="224.7"/>
  <line class="a" x1="112.7" y1="208.7" x2="144.7" y2="176.7"/>
  <polyline class="a" points="112.7 224.7 128.7 208.7 48.7 128.7"/>
  <line class="a" x1="112.7" y1="240.7" x2="128.7" y2="224.7"/>
  <line class="a" x1="160.7" y1="224.7" x2="176.7" y2="208.7"/>
  <line class="a" x1="192.7" y1="240.7" x2="224.7" y2="208.7"/>
</svg>
