<svg xmlns="http://www.w3.org/2000/svg" viewBox="0 0 256 256">
  <defs>
    <style>
      .a {
        fill: none;
        stroke: #131515;
        stroke-linecap: round;
        stroke-linejoin: round;
        stroke-width: 2px;
        opacity: 0.1;
        isolation: isolate;
      }
    </style>
  </defs>
  <title>pattern-black</title>
  <line class="a" x1="1" y1="81" x2="33" y2="49"/>
  <line class="a" x1="65" y1="1" x2="161" y2="97"/>
  <line class="a" x1="81" y1="33" x2="97" y2="17"/>
  <line class="a" x1="81" y1="65" x2="113" y2="33"/>
  <line class="a" x1="81" y1="97" x2="97" y2="81"/>
  <line class="a" x1="81" y1="129" x2="97" y2="113"/>
  <line class="a" x1="193" y1="193" x2="257" y2="257"/>
  <line class="a" x1="209" y1="225" x2="241" y2="193"/>
  <line class="a" x1="113" y1="113" x2="145" y2="81"/>
  <line class="a" x1="145" y1="113" x2="177" y2="81"/>
  <polyline class="a" points="81 113 97 97 145 145"/>
  <line class="a" x1="209" y1="65" x2="225" y2="49"/>
  <line class="a" x1="225" y1="81" x2="193" y2="113"/>
  <line class="a" x1="145" y1="49" x2="177" y2="17"/>
  <line class="a" x1="177" y1="161" x2="209" y2="129"/>
  <line class="a" x1="177" y1="113" x2="241" y2="177"/>
  <polyline class="a" points="161 161 177 177 161 193"/>
  <line class="a" x1="161" y1="145" x2="177" y2="129"/>
  <line class="a" x1="145" y1="129" x2="193" y2="81"/>
  <line class="a" x1="113" y1="161" x2="129" y2="145"/>
  <line class="a" x1="129" y1="193" x2="145" y2="177"/>
  <line class="a" x1="97" y1="209" x2="129" y2="177"/>
  <line class="a" x1="113" y1="129" x2="129" y2="113"/>
  <line class="a" x1="49" y1="225" x2="81" y2="193"/>
  <line class="a" x1="1" y1="129" x2="113" y2="241"/>
  <line class="a" x1="161" y1="225" x2="177" y2="241"/>
  <line class="a" x1="225" y1="193" x2="209" y2="209"/>
  <line class="a" x1="225" y1="177" x2="209" y2="193"/>
  <line class="a" x1="257" y1="97" x2="193" y2="161"/>
  <line class="a" x1="209" y1="177" x2="241" y2="145"/>
  <line class="a" x1="161" y1="209" x2="225" y2="145"/>
  <line class="a" x1="161" y1="65" x2="193" y2="33"/>
  <polyline class="a" points="129 33 145 17 209 81 257 33"/>
  <line class="a" x1="17" y1="17" x2="81" y2="81"/>
  <polyline class="a" points="65 97 49 113 17 81"/>
  <line class="a" x1="81" y1="49" x2="33" y2="97"/>
  <line class="a" x1="17" y1="97" x2="33" y2="81"/>
  <line class="a" x1="33" y1="33" x2="49" y2="17"/>
  <line class="a" x1="65" y1="177" x2="97" y2="145"/>
  <line class="a" x1="49" y1="129" x2="65" y2="113"/>
  <line class="a" x1="113" y1="225" x2="97" y2="241"/>
  <line class="a" x1="97" y1="225" x2="113" y2="209"/>
  <line class="a" x1="33" y1="177" x2="49" y2="161"/>
  <line class="a" x1="225" y1="97" x2="241" y2="113"/>
  <line class="a" x1="129" y1="81" x2="209" y2="1"/>
  <line class="a" x1="97" y1="33" x2="113" y2="17"/>
  <line class="a" x1="17" y1="33" x2="49" y2="1"/>
  <line class="a" x1="225" y1="33" x2="241" y2="17"/>
  <line class="a" x1="193" y1="49" x2="225" y2="17"/>
  <line class="a" x1="209" y1="17" x2="241" y2="49"/>
  <line class="a" x1="17" y1="225" x2="49" y2="193"/>
  <line class="a" x1="17" y1="209" x2="49" y2="241"/>
  <line class="a" x1="65" y1="241" x2="81" y2="225"/>
  <line class="a" x1="129" y1="209" x2="161" y2="177"/>
  <polyline class="a" points="129 225 145 209 65 129"/>
  <line class="a" x1="113" y1="257" x2="145" y2="225"/>
  <line class="a" x1="145" y1="257" x2="193" y2="209"/>
  <line class="a" x1="193" y1="257" x2="241" y2="209"/>
  <line class="a" x1="225" y1="113" x2="241" y2="97"/>
  <line class="a" x1="1" y1="145" x2="33" y2="113"/>
  <line class="a" x1="81" y1="177" x2="97" y2="161"/>
  <line class="a" x1="1" y1="225" x2="49" y2="177"/>
  <line class="a" x1="17" y1="161" x2="33" y2="145"/>
</svg>
