<?xml version="1.0" encoding="utf-8"?>
<!-- Generator: Adobe Illustrator 25.2.0, SVG Export Plug-In . SVG Version: 6.00 Build 0)  -->
<svg version="1.1" id="Vector" xmlns="http://www.w3.org/2000/svg" xmlns:xlink="http://www.w3.org/1999/xlink" x="0px" y="0px"
	 viewBox="0 0 639 949.1" style="enable-background:new 0 0 639 949.1;" xml:space="preserve">
<style type="text/css">
	.st0{fill:#050D1E;}
</style>
<path class="st0" d="M128.2,590.2c-3.6,1.6-7.5,3.4-11.5,5.4s-8.2,4-12.3,5.7l0.1-0.1c-18.9,8.5-38.5,15-58,21.4l-7.3,2.4l-3.7,1.2
	l-1.8,0.6c-0.6,0.2-1.2,0.4-1.8,0.7c-4.7,2-9.1,4.5-13.3,7.5C11,640.5,4.6,647.8,0,656.2c2.3-3.9,5.1-7.5,8.3-10.8
	c4.1-4.1,8.6-7.7,13.5-10.7c1.6-1,3.2-2,4.9-2.9c1.7-0.9,3.5-1.6,5.3-2.2c3.6-1.2,7.4-1.9,11.2-2.2c1.9-0.2,3.8-0.2,5.8-0.2
	c2,0,3.9,0.3,5.8,0.9c3.8,1.4,7,4,9.1,7.5c2.1,3.3,3.6,6.9,4.5,10.6c1,3.7,1.7,7.4,2.1,11.2c0.5,4.6,0.7,9.1,0.7,13.7
	c0.4-1.7,0.8-3.4,1-5.1c0.5-3.9,0.7-7.9,0.7-11.9c0-4-0.2-7.9-0.4-11.9c-0.1-2-0.3-3.9-0.5-5.9c-0.2-2.1,0-4.2,0.6-6.3
	c0.6-2,1.5-4,2.8-5.7c1.2-1.6,2.6-3.1,4.2-4.5c1.5-1.4,2.9-2.7,4.5-4c1.6-1.3,3.3-2.4,5-3.5c3.4-2.2,6.8-4.1,10.3-6
	c7-3.8,14.3-7.3,21.7-10.7c5.7-2.6,11.2-5.6,16.6-8.9l5.4-3.4C138.1,585.6,133.3,587.9,128.2,590.2z"/>
<path class="st0" d="M186.3,470L186.3,470c-2.6,2.3-5.6,4.6-8.7,7c-3.3,2.4-6.4,5.1-9.3,7.9c-4.3,4.5-8.2,9.2-11.8,14.2
	c-0.9,1.3-1.8,2.5-2.6,3.8c-0.9,1.2-1.6,2.5-2.3,3.8c-1.1,2.5-0.6,5.5,0.3,8.4c0.4,1.5,0.9,3,1.4,4.5s1,2.9,1.5,4.4
	c1.2,2.9,2.2,6,2.9,9.1c0.6,3.2,0.7,6.5,0.1,9.7c-0.6,3.2-1.7,6.3-3.1,9.1c-1.3,2.7-2.8,5.2-3.9,7.8c-0.6,1.2-1,2.5-1.3,3.8
	c-0.1,0.6-0.2,1.2-0.1,1.8c0,0.4,0,0.2,0,0.3l0,0l0.1-0.1l0.4-0.3c0.6-0.6,1.2-1,1.9-1.5c0.8-0.4,1.4-0.6,2-0.9
	c0.5-0.2,1-0.5,1.5-0.9c0.3-0.3,0.5-0.7,0.6-1.1c0.1-0.7,0.1-1.3,0.1-2c-0.1-1.5,0.1-3.1,0.4-4.5c0.2-0.8,0.5-1.5,0.9-2.2
	c0.4-0.7,0.8-1.3,1.2-1.9c0.8-1.2,1.8-2.4,2.9-3.4c1.1-1.1,2.3-2,3.6-2.8c0.3-0.2,0.7-0.4,1-0.5l1-0.5c0.6-0.3,1.2-0.6,1.8-0.9
	c2.4-1.4,4.7-3.1,6.7-5c0.5-0.5,1-1,1.5-1.5c0.5-0.6,1.1-1.1,1.7-1.6c1.2-1,2.4-1.8,3.8-2.5c2-1.1,4.2-2,6.4-2.7
	c0.5-0.1,1-0.3,1.5-0.5c0.5-0.2,1-0.4,1.4-0.7c0.9-0.5,1.8-1.2,2.6-1.9c2.1-1.5,3.4-3.9,3.3-6.5c0-0.5,0-1-0.1-1.5
	c-0.1-1-0.3-1.9-0.7-2.8c-0.3-0.7-0.8-1.2-1.4-1.6c-0.7-0.4-1.4-0.6-2.2-0.6c-1.6-0.2-3.3,0-4.9,0.3c-1.5,0.3-3,1-4.3,1.9
	c-1.3,1-2.5,2.1-3.6,3.3c-1.9,2.3-3.5,4.8-4.7,7.6c-0.6,1.4-1.2,3-1.8,4.5s-1.1,3-1.9,4.5l0,0v0.1v-0.1c-0.4,1-1.2,1.9-2.1,2.6
	c-0.6,0.3-1.2,0.5-1.9,0.5h-0.4l-0.5-0.1c-0.3-0.1-0.6-0.2-0.9-0.4c-0.9-0.6-1.7-1.5-2.2-2.5c-0.5-0.9-0.9-1.8-1.2-2.8
	c-0.3-0.9-0.5-1.9-0.7-2.9c-0.1-1-0.1-2,0-3c0.2-1.9,0.5-3.8,1-5.7c1-3.6,2.3-7.2,3.9-10.6c1.6-3.4,3.2-6.7,5-10
	c1.8-3.3,4-6.3,6.5-9.1c2.5-2.7,5.2-5.3,8.1-7.7c1.4-1.2,2.6-2.5,3.8-4c0.6-0.7,1-1.5,1.3-2.4c0.3-0.9,0.5-1.8,0.5-2.7
	c0.1-0.9,0.2-1.9,0.2-2.8c0-0.5,0-0.9-0.1-1.4c-0.1-0.4-0.3-0.8-0.7-1c-0.9-0.3-1.8-0.3-2.7,0C187.9,469.2,187.1,469.6,186.3,470
	l0.2-0.1L186.3,470L186.3,470z"/>
<path class="st0" d="M310.6,38.9c-4.4,5.7-8.1,11.9-11,18.5c-0.7,1.6-1.4,3.3-2,5c-0.6,1.7-1,3.4-1.7,5.2c-0.6,1.7-1.4,3.4-2.2,5
	c-0.1,0.2-0.2,0.4-0.4,0.6c-0.1,0.2-0.3,0.4-0.5,0.7c-0.3,0.4-0.7,0.8-1.1,1.1c-0.9,0.6-2.1,0.5-2.8-0.3c-0.7-0.8-1.1-1.9-1.1-2.9
	c-0.1-0.9-0.1-1.9-0.1-2.8c0.1-1.8,0.2-3.6,0.4-5.4c0.3-3.6,0.9-7.2,1.8-10.7c1.8-7.1,4.9-13.7,7.9-20.2s6.3-13,10-19.2
	c1-1.6,1.9-3,2.7-4.6s1.6-3.2,2.3-4.8c0.6-1.3,1.2-2.6,1.7-3.9c-4.6,4.6-9.4,8.8-14.5,12.8c-3.4,2.7-6.9,5.2-10.4,7.7
	s-7,4.9-10.3,7.5c-6.6,5.3-12.6,11.3-18,17.7c-5.6,6.4-10.7,13.1-15.4,20.2c-4.7,7-8.7,14.4-12,22.2c-1.5,3.9-2.7,7.9-3.7,12
	c-0.3,1-0.6,2.1-1,3.2c-0.4,1.2-0.9,2.3-1.5,3.4c-0.5,0.8-1.1,1.4-1.9,1.9c-0.8,0.5-1.8,0.7-2.8,0.7c-1-0.1-1.9-0.5-2.5-1.2
	c-0.3-0.4-0.6-0.7-0.9-1.2l-0.3-0.7c-0.1-0.1-0.1-0.2-0.1-0.3l-0.1-0.3c-0.3-1.2-0.6-2.4-0.6-3.7c-0.1-1.2-0.1-2.3-0.1-3.4
	c0-2.2,0.2-4.4,0.4-6.6l0.6-6.4c0.1-1.1,0.2-2.1,0.3-3.2s0.2-2.2,0.4-3.3c0.6-4.3,1.4-8.6,2.2-12.8l0.7-3.3
	c-0.1,0.1-0.2,0.2-0.3,0.4l-0.4,0.6c-2.3,3-4.5,6-6.6,9c-4.3,6-8.1,12.4-11.4,19.1c-1.6,3.3-3,6.7-4.4,10.2s-2.6,7-3.8,10.5
	s-2.2,7.1-3.1,10.7l-0.7,2.7c-0.2,0.8-0.4,1.8-0.6,2.7c-0.4,2-0.9,3.9-1.6,5.8l0.1-0.1c0.1-0.2,0.1-0.3,0.2-0.5l-0.1,0.3l-0.1,0.2
	c-0.3,1-0.8,1.9-1.5,2.8c-0.3,0.3-0.6,0.7-0.9,0.9c-0.3,0.3-0.7,0.5-1.1,0.7c-0.4,0.2-0.8,0.3-1.2,0.3l-0.6,0.1
	c-0.2,0-0.4-0.1-0.6-0.1c-0.9-0.2-1.6-0.7-2.2-1.4c-0.3-0.4-0.5-0.7-0.8-1.1c-0.2-0.3-0.3-0.6-0.4-0.9c-0.4-1.1-0.7-2.2-0.9-3.3
	c-0.6-4.2-0.9-8.4-0.7-12.6c0.1-2.1,0.2-4.2,0.4-6.2c0.1-0.9,0.2-1.8,0.2-2.6c-0.6,1.5-1.3,2.9-2,4.4c-1,2-2.1,3.8-3.1,5.8
	c-2.1,3.8-4.3,7.4-6.6,10.9c-1.1,1.8-2.3,3.4-3.5,5.1c-1.1,1.6-2.2,3.2-3.1,4.9c-2.1,3.8-3.4,8-3.8,12.3c-0.2,2.2-0.2,4.3-0.1,6.5
	c0.2,2.1,0.5,4.4,0.8,6.6s0.7,4.4,1.2,6.5c0.4,2,1.1,4,2,5.9c0.7,1.6,2.1,2.8,3.8,3.3c0.6,0.2,1.3,0.1,1.9-0.2
	c0.7-0.5,1.2-1.1,1.6-1.8c0.9-1.8,1.5-3.8,1.8-5.8c0.3-2.1,0.4-4.3,0.3-6.4c-0.1-2.2-0.3-4.4-0.5-6.7c-0.1-1.1-0.2-2.3-0.2-3.5
	c0-1.3,0.1-2.5,0.3-3.8c0.1-0.3,0.2-0.7,0.3-1c0.1-0.3,0.3-0.7,0.5-1c0.3-0.6,0.7-1.2,1.2-1.7c0.6-0.7,1.3-1.2,2.1-1.5
	c0.9-0.3,1.9-0.3,2.7,0.1c0.8,0.4,1.5,0.9,2,1.6c0.4,0.5,0.8,1.1,1.1,1.7c0.6,1,1.1,2,1.7,2.9c2.4,3.8,5.3,7.2,8.8,10.1
	c2.1,1.7,4.4,3.3,6.8,4.7c2.5,1.4,5,3,7.4,4.3s5,2.6,7.4,2.9c1.1,0.1,2.3,0,3.3-0.4c1.1-0.5,2.2-1.2,3.1-2c1.9-1.9,3.5-4.1,4.6-6.5
	c0.6-1.3,1.1-2.6,1.6-3.9c0.2-0.7,0.4-1.3,0.6-2l0.5-2.1c1.4-5.9,3.1-11.8,5.2-17.5c1-2.9,2.2-5.7,3.5-8.5c0.6-1.4,1.3-2.8,2.1-4.1
	c0.4-0.7,0.8-1.4,1.2-2s0.9-1.3,1.3-1.9c3.5-5,7.2-9.8,11.2-14.4c2-2.3,4.1-4.5,6.2-6.7c1.1-1.1,2.2-2.1,3.4-3.1
	c1.3-1.1,2.7-2,4.2-2.6c1-0.4,2-0.5,3.1-0.4c1.1,0.2,2.1,0.8,2.8,1.6c0.4,0.4,0.7,0.9,1,1.4c0.3,0.6,0.4,1.2,0.3,1.9
	c-0.1,1-0.4,1.9-0.9,2.7c-0.8,1.3-1.6,2.6-2.5,3.9c-0.9,1.2-1.7,2.4-2.5,3.6c-4,6.5-7.6,13.2-10.7,20.1c-3.2,6.7-5.3,14-6.2,21.4
	c-0.2,1.8-0.3,3.6-0.2,5.4c0,0.9,0.1,1.8,0.2,2.7s0.3,1.9,0.4,2.8c0.6,3.7,1.4,7.3,2.6,10.8c0.5,1.7,1.2,3.3,2.1,4.9
	c0.8,1.4,1.8,2.7,3.1,3.7c0.6,0.4,1.2,0.7,1.9,0.8l1.2,0.2l1.2,0.1c1.7,0,3.4-0.2,5-0.8c3.4-1.2,6.6-2.8,9.6-4.8
	c3.1-2,6.2-4.1,9.2-6.3c6-4.3,11.3-9.4,15.9-15.1c4.6-5.6,8.3-12,10.7-18.9l3.7-10.6c1.3-3.4,2.3-6.9,3-10.5c0.2-1,0.4-2,0.7-3
	c0.1-0.5,0.3-1,0.5-1.5c0.1-0.2,0.2-0.5,0.3-0.7l0.2-0.4l0.3-0.5c0.8-1.5,1.9-3,3.3-3.4c0.4-0.1,0.7-0.2,1.1-0.2
	c0.4,0,0.7,0.1,1.1,0.2c0.7,0.3,1.3,0.8,1.8,1.4c0.6,0.7,1,1.4,1.2,2.2c0.1,0.2,0.1,0.4,0.2,0.6l0.1,0.6c0,0.3,0.1,0.6,0.1,0.8
	c0.1,1,0.2,2.1,0.1,3.1c0,1-0.1,2-0.1,2.9s-0.1,2-0.2,2.9c-0.8,7.6-1.8,15-2.5,22.4c-0.2,1.9-0.4,3.7-0.5,5.6l-0.5,5.6
	c-0.4,3.8-0.8,7.5-1.2,11.3c-0.4,3.7-0.9,7.5-1.2,11.2c-0.2,1.7-0.2,3.4,0,5.1c0.1,1.5,0.6,2.9,1.5,4.2c0.7,1,1.7,1.7,2.9,1.9h0.5
	c0.2,0,0.4,0,0.6,0h1.4h2.8c3.7-0.1,7.5-0.2,11.2-0.5c7.4-0.4,14.8-1.6,22.1-3.4c3.6-0.9,7-2.1,10.4-3.7c3.3-1.6,6.5-3.5,9.5-5.6
	c6.1-4.4,11.5-9.6,16.1-15.5c6.1-7.8,11.9-16,16.3-24.7c1.1-2.2,2.1-4.4,2.9-6.7c0.8-2.3,1.4-4.6,1.9-6.9c0.4-2.4,0.7-4.8,0.9-7.3
	c0.1-1.3,0.2-2.5,0.5-3.9c0.1-0.7,0.3-1.4,0.6-2.2c0.3-0.9,0.8-1.7,1.4-2.4c0.4-0.4,0.8-0.8,1.2-1.1c0.5-0.3,1-0.5,1.5-0.6
	c1.1-0.2,2.2,0.1,3,0.8c0.8,0.7,1.4,1.5,1.8,2.5c0.3,0.6,0.6,1.3,0.8,2c0.7,2.5,1.2,5.1,1.5,7.7c0.7,5.1,1.1,10.2,1.2,15.4
	c-0.2,6.8-0.9,13.6-2.1,20.3c1.3-1.9,2.5-3.8,3.7-5.8c3-4.8,5.5-9.8,7.6-14.9c1-2.6,1.8-5.2,2.3-7.9c0.5-2.8,1-5.5,1.4-8.3
	c0.7-5.6,1.1-11.2,1.3-16.9s0.1-11.3-0.2-17s-0.7-11.3-1.5-16.9c-0.4-2.8-0.9-5.6-1.4-8.3c-0.3-1.4-0.5-2.8-0.9-4.2l-0.7-3
	c0,0,0-0.1-0.1-0.1l-1.2,1.1l-6.5,5.7l-25.8,22.5l-3.2,2.8c-0.5,0.5-1.1,1-1.7,1.4l-1,0.7l-0.8,0.5c-0.3,0.2-0.6,0.3-0.9,0.4
	c-0.6,0.2-1.2,0.4-1.9,0.4c-0.6,0-1.2-0.2-1.8-0.5c-1.1-0.7-1.8-1.9-2.1-3.2c-0.1-0.3-0.1-0.7-0.2-1c0-0.2,0-0.4,0-0.7
	c0-0.5,0-0.9,0-1.3c0-0.8,0.1-1.6,0.3-2.4c0.3-1.5,0.7-3,1.1-4.5l0.4-1.1c0.1-0.4,0.2-0.7,0.3-1c0.2-0.6,0.4-1.2,0.5-1.8
	c0.6-2.7,0.9-5.4,1.1-8.1c0.4-5.6,0.4-11.2,0.3-16.9s-0.4-11.4-0.7-17s-0.9-11.3-1.5-16.9c-0.3-2.8-0.7-5.6-1.1-8.4l-0.5-3.4
	L400.1,1L400,0.6V0.4V0.4l0,0l0,0l-0.1,0.1l-0.9,1l-2.7,2.9c-1.9,2-3.8,4-5.8,6c-3.9,3.9-8,7.6-12.3,11.1c-2.1,1.7-4.3,3.4-6.6,4.9
	s-4.5,3-6.8,4.4c-4.6,2.8-9.1,5.6-13.9,8.1c-2.4,1.2-4.8,2.3-7,3.5s-4.5,2.4-7.1,3.4c-1.3,0.5-2.7,0.9-4.2,1c-0.4,0-0.8,0-1.2,0
	c-0.4-0.1-0.8-0.2-1.2-0.3c-0.4-0.2-0.8-0.4-1.2-0.6c-0.4-0.2-0.7-0.6-1-0.9c-0.6-0.7-1-1.7-0.9-2.7c0-0.8,0.2-1.6,0.6-2.4
	c0.6-1.2,1.3-2.3,2.1-3.4c1.5-2,3-3.9,4.2-5.9s2.5-4.1,3.8-6.1c2.4-3.9,4.4-8,6.2-12.3l-1.2,0.6c-6.1,2.9-11.9,6.4-17.2,10.6
	C320,28,315,33.2,310.6,38.9z"/>
<path class="st0" d="M344.1,12.5L344.1,12.5L344.1,12.5L344.1,12.5z"/>
<polygon class="st0" points="224.9,535.4 224.9,535.4 224.9,535.4 224.9,535.4 "/>
<path class="st0" d="M224.9,535.5c0.7,5.8,1.9,11.5,3.3,17.2c1.4,5.7,3.3,11.2,5.1,16.7l0,0c0.9,2.3,1.7,5,2.7,7
	c0.6,1.2,1.1,2.4,1.7,3.5c0.6,1.2,1.4,2.2,2.4,3.1c1.3,1,2.5,2.2,4,3.2c1.4,1,2.9,1.9,4.5,2.6l0.4,0.1l0.2,0.1l0.2,0.1
	c0.1,0,0.4,0.1,0.4,0.1l-0.2-0.5l-0.1-0.2l-0.2-0.7l-1.1-2.8c-0.7-1.9-1.5-3.7-2.2-5.5l-2.2-5.6c-0.8-1.9-1.4-3.9-2-5.9
	c-1.5-5-2.8-9.6-4.2-14.3c-0.7-2.4-1.3-4.8-1.9-7.2l-0.2-0.9l-0.1-0.5l-0.1-0.3l-0.1-0.3l-0.2-0.3c-0.1-0.2-0.2-0.5-0.4-0.7
	c-0.7-0.9-1.5-1.8-2.3-2.5C229.9,538.9,226.8,537.8,224.9,535.5L224.9,535.5z"/>
<path class="st0" d="M433.6,443.2c-0.6,1.1-1.1,2.2-1.7,3.3l-0.8,1.6l-0.6,1.4l1.1,0.1l1.2,0.1l2.6,0.1l5.2,0.1l5.2,0.1
	c1.7,0,3.5,0,5.2,0.2c7.1,0.4,14,2.8,19.9,6.8c3,2,5.7,4.5,7.8,7.5c2.2,3.1,3.3,6.8,3.1,10.5c-0.1,1.9-0.5,3.7-1.2,5.4
	c-0.6,1.7-1.4,3.3-2.3,4.9c-1.8,3.1-3.9,6-6.3,8.7l0.1-0.1c-1.2,1.4-2.5,2.7-3.8,3.9c-0.7,0.7-1.4,1.3-2.2,1.8
	c-0.8,0.5-1.7,1-2.4,1.4c-0.2,0.1-0.3,0.2-0.5,0.3c0,0-0.1,0.1-0.1,0.1c0,0.1,0,0.2,0.1,0.4c0.1,0.1,0.2,0.3,0.3,0.4l0.2,0.1
	l0.2,0.1c0.3,0.2,0.7,0.4,1,0.6c1.5,0.7,3,1.3,4.5,1.8c3.7,1.2,7.2,2.7,10.6,4.6c3.3,2.1,6.4,4.6,9.1,7.4c3.6,3.5,6.6,7.6,9.1,11.9
	c1.2,2.3,2.3,4.6,3.2,7c0.8,2.3,2,4.4,3.6,6.2c0.5,0.5,1.1,1,1.7,1.4l0.5,0.3l0.5,0.2c0.3,0.2,0.7,0.3,1.1,0.4
	c1.5,0.4,3,0.7,4.6,0.8c1.6,0.2,3.1,0.2,4.7,0.2c0.8,0,1.6,0,2.3,0h0.3h0.1v-0.1V545v-0.1l-0.1-0.6c-0.1-0.4-0.1-0.8-0.2-1.2
	c-0.1-0.8-0.2-1.6-0.2-2.5c-0.1-1.6,0-3.3,0.2-4.9c0.2-1.6,0.5-3.2,0.8-4.8c0.2-0.7,0.3-1.5,0.3-2.2c0.1-0.7,0-1.4-0.1-2.1
	c-0.5-2.9-1.9-5.5-4-7.6c-1-1-2.3-2-3.5-3c-1.3-1-2.5-2.1-3.6-3.3c-2.3-2.3-4.3-4.9-6.1-7.7c-2-2.7-3.4-5.8-4.4-9
	c-0.5-1.8-0.6-3.7-0.3-5.6c0.4-1.9,1.1-3.6,2.3-5.2c1.1-1.4,2.3-2.7,3.6-3.9c1.2-1.1,2.1-2.4,2.8-3.8c1.1-2.8-0.3-6.1-2-8.9
	c-1.8-2.8-4.2-5.2-6.9-7.1c-5.5-4-11.7-7-17.9-10.1c-3.1-1.5-6.2-2.9-9.4-4.2s-6.4-2.4-9.6-3.5c-8.8-2.8-17.9-4.4-25-7l0,0l-0.1,0.1
	C435.9,439,434.7,441.1,433.6,443.2z"/>
<path class="st0" d="M473.2,262.2c0.3-1,0.7-1.9,1.1-2.9c1.6-3.5,3.5-6.7,5.8-9.8c1.1-1.5,2.1-3,3.2-4.5s2.2-3,3.5-4.4
	c4.9-5.3,10.2-10.2,16-14.4c1.4-1.1,2.8-2.1,4.2-3.1l2.1-1.5l0.5-0.4l0.6-0.4c0.4-0.2,0.8-0.5,1.2-0.7l2.2-1.2
	c0.6-0.3,1.1-0.6,1.6-1c0.2-0.1,0.2-0.3,0.2-0.6c0-0.2,0-0.5-0.2-0.6c-0.1-0.1-0.1-0.1-0.2-0.2c-0.1-0.1-0.2-0.1-0.4-0.1
	c-0.6-0.1-1.1-0.1-1.7,0c-1.5,0.2-2.9,0.6-4.2,1.1c-2.9,1.1-5.8,2.5-8.5,4.1c-2.8,1.6-5.6,3.2-8.1,5c-2.6,1.8-5,3.7-7.3,5.8
	c-4.6,4.4-8.9,9.2-12.7,14.2c-2,2.6-4.1,5.1-6.3,7.6l-1.7,1.9c-0.9,1-1.9,2-2.8,2.8c-0.5,0.5-0.9,0.8-1.4,1.2l-1.3,0.8
	c-0.4,0.3-0.9,0.5-1.3,0.8c-0.2,0.1-0.3,0.2-0.5,0.1c-0.2,0-0.4,0-0.5,0c-0.2-2-0.3-4-0.5-5.9c-0.1-0.9-0.2-1.9-0.4-2.9l-0.3-1.7
	c-0.4-2.3-0.8-4.6-1.2-6.8c-1.9-9.3-4.3-18.8-7.2-28.2c-1.4-4.7-3.1-9.5-4.4-14.5c-0.7-2.6-1.1-5.2-1.4-7.9c-0.1-0.7-0.1-1.3-0.1-2
	l0-1V191c0-0.2,0-0.4,0-0.6V190c0-0.1-0.1-0.1-0.1-0.1h-0.2l-0.4,0.1c-0.1,0.1-0.3,0.1-0.4,0.2c-0.5,0.3-1,0.6-1.5,1
	c-2,1.4-3.9,3-5.8,4.6l-2.8,2.5c-1.1,0.8-2.1,1.8-3.2,2.5s-2.2,1.5-3.3,2.2l-3.4,2c-9,4.6-18.4,8.6-28,11.9
	c-8.8,3.1-17.6,5.8-26.5,8.1c-2.2,0.6-4.5,1.1-6.7,1.6l-3.5,0.7c-1.2,0.2-2.3,0.3-3.5,0.5c-4.6,0.6-9.2,0.9-13.8,1.1
	c-9.1,0.3-18.3,0.1-27.4-0.5c-9.1-0.6-18.1-1.5-27.1-2.8c-4.5-0.6-9-1.4-13.4-2.2s-8.9-1.6-13.3-2.5s-8.9-1.8-13.3-2.9
	s-8.8-2.4-13.1-3.9c-8.6-3-17-6.6-25.1-10.9l-3-1.6l-3-1.6c-2-1.1-4-2.2-6-3.3s-4-2.2-5.9-3.4l-1.5-0.9l-0.4-0.3l0,0l-0.2,1.1
	l-1,5.5c-0.7,3.7-1.5,7.4-2.4,11.1c-0.9,3.8-2,7.5-3.4,11.1c-1.4,3.6-3.1,7.1-4.8,10.5l-2.6,5c-0.4,0.8-0.9,1.7-1.3,2.5
	c-0.4,0.8-0.7,1.5-1.1,2.3c-1.3,3.2-2.1,6.6-2.3,10.1c-0.1,1.7-0.2,3.5-0.1,5.2c0.1,1.7,0.3,3.5,0.7,5.1c0.3,1.6,0.9,3.2,1.6,4.7
	c0.9,1.7,1.7,3.3,2.6,4.9c1.6,2.8,3.5,5.5,5.8,7c1.1,0.7,2.3,1.2,3.6,1.4c0.3,0.1,0.7,0.1,1,0c0.4,0,0.7,0,1.1,0
	c0.8-0.1,1.6-0.2,2.4-0.3c3.3-0.7,6.4-1.7,9.5-2.9c3.3-1.2,6.7-2.4,10.1-3.4c6.9-1.9,14-3.1,21.1-3.6c3.6-0.2,7.3-0.1,10.9,0.2
	c1.8,0.2,3.7,0.5,5.5,1c0.9,0.2,1.8,0.5,2.7,0.8s1.9,0.7,2.6,1c3.4,1.3,6.7,3,9.7,5c3.1,2.1,5.9,4.6,8.3,7.5
	c1.2,1.4,2.3,2.9,3.4,4.4s2,3,2.9,4.6c0.4,0.8,0.9,1.6,1.3,2.4l1.2,2.4c0.9,1.6,1.5,3.2,2.3,4.8c2.9,6.5,5.3,13.2,7.3,20
	c0.5,1.7,0.9,3.5,1.3,5.2s0.8,3.5,1,5.3c0.6,3.6,1,7.2,1.1,10.8c0.1,3.6,0,7.2-0.3,10.8c-0.1,1.8-0.3,3.5-0.4,5.1l-0.1,1.4
	c0,0.5-0.1,1-0.1,1.4c-0.1,0.9-0.3,1.9-0.5,2.8c-0.8,3.6-1.8,7.1-3.1,10.5c-1.2,3.4-2.7,6.6-4.1,9.8l-1.1,2.4l-0.5,1.2l-0.5,1.1
	c-0.6,1.4-1.1,2.9-1.4,4.4c-0.7,2.9-0.6,5.9,0.2,8.7c0.4,1.2,1.1,2.3,1.9,3.1c1.1,0.9,2.3,1.7,3.6,2.2c2.8,1.3,5.9,2,9,2.1
	c1.6,0.1,3.1,0,4.7-0.2l1.2-0.2l1.2-0.2l1.2-0.3l1.3-0.3c3.4-0.8,6.8-1.5,10-2.4c3.1-0.7,6-2,8.7-3.7c0.3-0.2,0.6-0.4,0.9-0.6
	l0.8-0.7c0.5-0.5,1.1-1.1,1.5-1.6c0.9-1,1.6-2.3,2-3.6c0.8-2.5,0.3-5.6-0.7-8.7c-0.5-1.6-1.1-3.1-1.8-4.6l-2.1-4.7
	c-2.9-6.3-5.9-12.5-8.8-18.8c-2-4.2-4-8.3-6-12.6c-2-4.3-3.7-8.7-5.1-13.2c-1.4-4.6-1.9-9.5-1.4-14.4c0.1-0.6,0.2-1.2,0.3-1.7
	l0.3-1.7c0.2-1.1,0.4-2.3,0.7-3.4c0.5-2.3,1.3-4.6,2.2-6.7c2-4.2,4.6-8,7.9-11.2c0.4-0.4,0.8-0.8,1.2-1.2l1.2-1.1
	c0.8-0.7,1.6-1.5,2.5-2.2c1.7-1.3,3.4-2.7,5.2-3.8c6.7-4.5,13.8-8.3,21.3-11.3l-2.2-0.8c-7-2.4-14.5-4-21.9-3.5
	c-2,0.1-4.1,0.4-6.1,0.8c-1,0.2-2,0.4-3,0.7l-1.5,0.4l-1.5,0.5c-1.1,0.4-2.1,0.8-3.2,1.1c-1,0.4-2,0.6-3.1,0.7c-0.5,0.1-1,0.1-1.5,0
	c-0.5-0.1-1-0.3-1.3-0.8c-0.3-0.4-0.5-1-0.5-1.5c0-0.5,0.2-1,0.5-1.4c0.6-0.8,1.4-1.5,2.2-2l0.6-0.5l0.7-0.5c0.5-0.3,1-0.6,1.5-0.9
	l1.6-0.9l1.5-0.8l2.8-1.4c3.7-1.8,7.5-3.5,11.3-5.1c7.6-3.4,15.8-5.5,24.1-6.2c4.2-0.3,8.4-0.1,12.5,0.5c4.1,0.6,8.2,1.4,12.2,2.4
	c3.9,1.1,7.9,2,11.9,2.6c4,0.5,8,0.4,11.9-0.1c2-0.3,4-0.6,5.9-1.1c2.1-0.5,4.2-0.8,6.3-1.1c4.2-0.4,8.5-0.4,12.8,0.2
	c4.2,0.6,8.4,1.6,12.4,3c2,0.7,4,1.6,5.9,2.6c1.1,0.5,2.1,1.2,3,1.9c0.4,0.4,0.9,0.8,1.3,1.2s0.8,0.8,1.2,1.3c1.5,1.8,2.6,3.8,3.4,6
	c0.8,2.1,1.3,4.2,1.6,6.4c0.5,4.2,0.7,8.5,0.5,12.7c-0.3,8.6-2.3,17-5.8,24.8c-0.9,2-1.9,3.9-2.9,5.7c-0.5,0.9-1.1,1.9-1.6,2.8
	s-1,1.6-1.4,2.5c-1.8,3.5-3.1,7.2-4.1,11c-1,3.8-1.5,7.7-1.7,11.6c-0.1,0.9-0.1,1.8,0,2.8c0,0.9,0.1,1.8,0.3,2.6
	c0,0.2,0.1,0.4,0.2,0.6c0.1,0.1,0.1,0.2,0.3,0.3c0.5,0.3,1,0.4,1.6,0.4h0.6h0.6c0.4,0,0.9,0,1.3-0.1c0.4,0,0.9-0.1,1.3-0.2
	c0.4-0.1,0.8-0.2,1.2-0.3c1.7-0.5,3.2-1.4,4.6-2.4c2.9-2.4,5.5-5.3,7.5-8.6c4.4-6.9,8.3-14,11.8-21.4c3.7-7.3,7.2-14.8,10.6-22.3
	c0.9-1.9,1.7-3.8,2.5-5.6c0.8-1.8,1.5-3.7,2.1-5.5c1.2-3.7,1.8-7.6,2-11.5v0.4c0.1-1.6-0.1-3.1-0.4-4.7l-0.1-0.5l-0.2-0.7l-0.3-1.4
	c-0.2-0.9-0.4-1.9-0.6-2.8c-0.3-2-0.4-4-0.3-6C472.7,264.3,472.9,263.2,473.2,262.2z"/>
<path class="st0" d="M339.9,277.2L339.9,277.2L339.9,277.2L339.9,277.2z"/>
<path class="st0" d="M452.9,484.9c-2.5,0.3-5,0.5-7.5,0.6l-7.5,0.5l-3.8,0.2l-1.9,0.1c-0.4,0-0.9,0.1-1.2,0.4
	c-0.7,0.7-1.1,1.6-1.1,2.6c-0.1,1.2-0.1,2.4,0,3.5c0.1,1.2,0.2,2.4,0.4,3.7c0.2,1.2,0.5,2.3,0.9,3.4c0.4,1.1,1,2,1.8,2.9
	c0.8,0.9,1.6,1.7,2.5,2.5l0,0c3.4,2.5,7,4.8,10.7,6.8c4.3,2.2,7.8,5.1,11.9,7.7c5,3.2,9.5,7.8,14.2,11.7c1.5,1.3,3,2.6,4.5,4
	c1.5,1.4,2.8,3,3.9,4.7c0.8,1.4,2.4,1.7,4.2,1.7h1.4c0.4,0,0.9,0,1.3-0.1c0.3,0,0.5-0.1,0.7-0.3c0.1-0.1,0.1-0.2,0.1-0.5
	c-0.1-0.8-0.4-1.5-0.8-2.2c-0.4-0.8-0.9-1.5-1.5-2.2c-0.5-0.7-1.1-1.3-1.8-1.9L482,533c-3.1-2.3-6.2-4.7-9.3-7.2
	c-3.4-2.6-6.8-5-10.3-7.4s-7.1-4.7-10.5-7.4c-1.7-1.4-3.3-2.9-4.8-4.6c-0.8-1-1.4-2.1-1.7-3.3c-0.2-1.3,0-2.7,0.8-3.9
	c1.3-1.9,3-3.5,5-4.6c1.8-1.2,3.7-2.2,5.4-3.4c2.1-1.7,4-3.7,5.6-5.8c1.6-2.1,3.2-4.1,4.8-5.8l-0.2,0.1c-2,1.4-4.2,2.5-6.4,3.4
	C458,484.1,455.5,484.7,452.9,484.9z"/>
<polygon class="st0" points="467,479.6 467,479.6 467,479.6 467,479.6 "/>
<path class="st0" d="M539.2,559.4c4.5,0.3,8.9,0.3,13.4,0l6.7-0.4c2.3-0.1,4.5-0.1,6.8,0c4.5,0.3,9,1,13.4,2.2
	c2.3,0.5,4.5,1.4,6.5,2.7c2,1.5,3.4,3.6,4,6c0.6,2.3,0.7,4.7,0.5,7c-0.2,2.3-0.7,4.6-1.4,6.8c-1.3,4.3-2.5,8.6-3.5,12.9
	c-0.5,2.2-1,4.4-1.5,6.5c-0.2,1.1-0.4,2.2-0.6,3.3l-0.5,3.3v-0.1c-0.8,7.5-0.8,15.1,0.1,22.6c0.1,0.5,0.1,0.9,0.2,1.4
	c0-0.1,0-0.1,0-0.2c0.4-2.6,0.8-5.2,1.2-8c0.9-5.4,2.2-10.7,4.1-15.8c1.9-5.2,4.1-10.3,6.6-15.2c1.3-2.6,2.7-5.1,4.3-7.5
	c1.5-2.4,3.3-4.7,5.4-6.7c2.1-2.1,4.6-3.7,7.3-4.8c2.8-1,5.8-1.2,8.7-0.7c2.8,0.5,5.6,1.4,8.2,2.7c2.6,1.2,5.1,2.5,7.5,4
	c0.8,0.5,1.6,1,2.4,1.6c-0.5-0.6-1.1-1.2-1.6-1.7c-5.2-5.4-11.3-9.8-18-13.1c-6.8-3.3-13.8-5.9-21.1-7.8c-7.2-2-14.6-3.4-22-4
	c-7.5-0.5-15-0.4-22.4,0.3c-2.5,0.2-5,0.6-7.5,0.8c-1.2,0.1-2.5,0.2-3.7,0.2s-2.4,0.1-3.6,0.2c-2.4,0.1-4.7,0.3-6.9,0.5
	c-1.1,0.1-2.2,0.2-3.3,0.4c-1,0.1-2,0.4-3,0.8h0.5c2.1-0.2,4.1-0.4,6.2-0.4C534.7,559,537,559.2,539.2,559.4z"/>
<path class="st0" d="M525.8,559.4"/>
<path class="st0" d="M222.1,580.2c-0.6-0.5-1.1-0.9-1.7-1.3c-0.6-0.4-1.2-0.7-1.9-0.9c-1.3-0.5-2.7-0.8-4.1-0.9
	c-1.4-0.1-2.8,0-4.1,0.5c-0.6,0.2-1.2,0.6-1.7,1c-0.5,0.5-1,1-1.4,1.5c-1.7,2.3-2.9,4.9-3.7,7.6c-0.2,0.6-0.4,1.3-0.4,1.9v0.4
	l0.1,0.4c0.1,0.3,0.2,0.6,0.3,0.8c0.7,1.1,1.7,2,2.8,2.7c2.5,1.4,5.1,2.5,7.8,3.5c5.4,2.1,10.8,3.9,16.3,5.6s11,3.5,16.5,5.1
	c11,3.3,22.2,6.2,33.5,8.9h-0.2c9.7,2.1,20.2,4.5,28.9,5.7c10.9,1.5,21,3.1,32.1,2.6c6.7-0.3,13.7-0.8,20.8-1.4
	c3.5-0.3,7.1-0.7,10.6-1.1c1.8-0.2,3.5-0.4,5.3-0.6s3.5-0.5,5.1-0.8c8.8-1.8,17.2-5,24.8-9.7c3.8-2.3,7.4-4.8,10.7-7.7
	c0.9-0.7,1.7-1.4,2.5-2.2s1.7-1.4,2.5-2.2c1.6-1.4,3-3.1,4.2-4.8c0.6-0.9,1.1-1.8,1.4-2.7c0.2-0.5,0.3-0.9,0.4-1.4
	c0.1-0.5,0.2-1,0.2-1.5c0-0.5,0-0.9,0-1.4c-0.1-0.4-0.2-0.7-0.4-1c-0.5-0.6-1.2-0.9-2-0.9c-1-0.1-1.9,0-2.8,0.3
	c-1,0.3-2,0.7-2.9,1.2c-1.9,1-3.9,2.1-5.8,3.2c-3.9,2.2-8,4.2-12.1,6.1l-12.4,5.6c-4.5,2-8.9,4-13.5,5.8s-9.2,3.4-13.9,4.9
	c-9.5,2.9-19.4,3.9-29.2,4.2c-9.8,0.3-19.6,0-29.4-1c-4.9-0.5-9.7-1.2-14.5-2l-3.6-0.7l-3.6-0.9c-1.2-0.3-2.4-0.6-3.5-1
	s-2.4-0.7-3.5-1.1c-12.4-3.9-24.7-9.1-33.2-15.6l0,0l-1.3-0.8c-4.5-2.7-8.9-5.6-13.1-8.8C226.6,583.8,224.3,581.9,222.1,580.2z"/>
<path class="st0" d="M277,577.2c-1.3-0.9-2.5-1.8-3.8-2.7c-2.5-1.9-4.9-3.8-7.2-5.9c-4.4-4.1-8.4-8.6-12-13.4
	c1.8,2.3,2.4,5.6,3.5,8.6c2.1,4.7,3.9,9.6,5.9,14.3c1,2.4,2.1,4.7,3.4,6.9c1.3,2.2,2.8,4.3,4.5,6.2c1.5,1.7,3.3,3.1,5.3,4.1
	c0.9,0.4,2,0.7,3,0.8l0.8,0.1h2.6c2.3,0,4.7-0.1,7-0.4c1.2-0.1,2.4-0.3,3.5-0.5c1.1-0.2,2.2-0.5,3.3-0.9c0.8-0.3,1.5-0.8,2-1.4
	c0.4-0.5,0.4-1.1,0.1-1.7c-0.4-0.7-1-1.3-1.6-1.7l-2.1-1.6c-2.3-1.8-5-2.7-7.4-4.3c-2-1.3-4.6-2.5-6.9-4l0,0
	C279.7,578.9,278.4,578.1,277,577.2z"/>
<polygon class="st0" points="253.6,554.8 253.6,554.8 253.6,554.8 "/>
<path class="st0" d="M177,640.7c2.7,8.8,5.5,17.5,8.4,26.2c2.9,8.7,5.9,17.4,9.1,25.9s6.9,16.9,10.6,25.3s7.5,16.7,11.4,25.1
	c7.6,16.7,16,33,24.1,49.7l-0.1-0.2c7.1,14.1,14.4,29.6,20.8,42l2.9,5.8c1,1.9,1.9,3.9,2.7,5.9c1.7,4,3,8,4.3,12
	c2.6,8.1,4.8,16.3,7.1,24.9c1.4,5.2,2.5,10.6,3.6,16s2.2,11,3.3,16.5s2.2,11.1,3.3,16.7l1.6,8.3c0.3,1.4,0.5,2.7,0.8,4.1l0.4,2
	c0.1,0.6,0.3,1.1,0.6,1.6c0.7,1.1,2.5,0.8,4.2,0.4c1.6-0.4,2.9-1.4,3.7-2.8c0.7-1.2,0.4-3,0-4.7s-0.8-3.5-1.2-5.2
	c-0.9-3.5-1.7-7-2.4-10.5s-1.5-7-2.3-10.4c-3.2-13.8-6.5-27.5-10.4-41c-1-3.4-2-6.8-3.1-10.1s-2.3-6.7-3.5-10
	c-2.4-6.7-4.8-13.3-7.4-19.9c-5.2-13.2-10.7-26.4-17.2-39.3c-7-13.8-13.8-27.8-20.5-41.8s-13.1-28.2-19.3-42.4s-12.2-28.6-17.2-43.3
	c-2.5-7.3-4.7-14.8-6.9-22.2s-4.1-14.9-6-22.4c-2.6-10-5.2-20-7.4-29.6c-0.6-2.4-1.1-4.8-1.6-7.1l-0.8-3.5c-0.1-0.5-0.2-0.9-0.5-1.3
	c-0.3-0.3-0.7-0.6-1.2-0.7c-1-0.3-2.1-0.3-3.1-0.2c-1,0.1-2,0.4-2.9,1c-0.7,0.7-1.1,1.7-1.2,2.7c-0.1,1.1-0.1,2.1,0,3.2l0,0l0,0l0,0
	v0.3c1.4,9,3.3,17.9,5.7,26.7C171.8,623.1,174.3,631.9,177,640.7z"/>
<path class="st0" d="M163.9,588.4c0.1,0.6,0.2,1.1,0.2,1.7C164.1,589.6,164,589,163.9,588.4z"/>
<path class="st0" d="M255.5,459.4c-2.9,1.3-5.7,3-8.2,5c-1.3,1-2.5,2.1-3.6,3.3c-0.5,0.6-1.1,1.2-1.6,1.9c-0.3,0.3-0.5,0.7-0.8,1.1
	c-0.3,0.4-0.5,0.8-0.7,1.2l-1.3,2.5c-0.4,0.8-0.8,1.5-1.1,2.1s-0.8,1.3-1.6,1.5c-0.2,0.1-0.4,0.1-0.6,0c-0.2,0-0.4-0.1-0.6-0.3
	c-0.3-0.3-0.4-0.6-0.5-1c-0.2-1.6-0.1-3.2,0.3-4.7c0.2-0.9,0.4-1.9,0.7-2.9s0.6-2.1,0.9-2.8c2-6.3,4.7-12.4,7.9-18.1
	c2.7-5.8,4.5-12,5.2-18.3c0.9-6.4,1.2-12.8,0.9-19.2c-0.6-6.3-2.1-12.5-4.4-18.4c-1.2-3-2.5-5.9-4-8.8c-0.3-0.7-0.7-1.4-1.1-2.1
	s-0.7-1.4-1.2-2c-0.8-1.3-1.7-2.6-2.7-3.8c-1.9-2.5-4.1-4.8-6.5-6.8c-2.4-2.1-5-3.9-7.8-5.4l0.2,0.1c-4.9-2.6-10.2-4.5-15.6-5.5
	c-0.7-0.1-1.3-0.2-2-0.3c-0.6-0.1-1.3-0.1-1.9-0.1h-0.9c-0.3,0-0.6,0.1-0.9,0.1l-0.9,0.1l-0.9,0.2c-2.4,0.5-4.7,1.5-6.8,2.8
	c-1,0.6-1.9,1.2-2.8,1.9c-0.5,0.3-0.9,0.7-1.4,1l-0.6,0.5c0-0.1,0,1.5,0.1,2.6s0.2,2.4,0.3,3.6c0.3,2.4,0.6,4.7,1.1,7.1
	c0.4,2.4,1.1,4.7,1.7,7.1s1.3,4.8,2.1,7.2c2.3,7.3,4.2,15.1,6.2,22.9s4.2,15.6,6.8,23.1c3.3,9.8,6.8,19.4,10.4,28.9l2.7,7.1
	c0.9,2.4,1.8,4.7,2.8,7c1.9,4.5,4.3,8.7,7.2,12.7c2.9,3.8,6.4,7.2,10.4,8.9c0.5,0.2,1,0.4,1.5,0.5l0.8,0.2c0.3,0.1,0.6,0.1,0.9,0.2
	c1.2,0.2,2.4,0.5,3.6,0.6c2.2,0.4,4.4,0.3,6.5-0.2c1-0.3,1.9-0.7,2.8-1.2c0.9-0.6,1.7-1.2,2.5-2c1.5-1.4,2.4-3.3,2.7-5.3
	c0.1-1,0.1-2-0.1-3c-0.1-0.5-0.2-1-0.4-1.5c-0.1-0.2-0.2-0.5-0.3-0.7l-0.3-0.5c-0.4-0.6-0.9-1-1.6-1.2c-0.8-0.2-1.6-0.1-2.3,0.2
	c0,0-0.2,0.1-0.2,0.1h-0.1l-0.2,0.2c-0.3,0.3-0.7,0.5-1,0.7c-0.8,0.5-1.6,0.9-2.5,1.1c-0.5,0.1-1,0.2-1.5,0.2c-0.3,0-0.5,0-0.8,0
	c-0.3,0-0.6-0.1-0.9-0.1c-0.6-0.1-1.2-0.4-1.8-0.7c-0.5-0.3-1-0.8-1.3-1.3c-0.3-0.6-0.5-1.2-0.5-1.8c0-0.3,0-0.7,0-1
	c0-0.3,0-0.5,0.1-0.8c0.2-0.9,0.4-1.7,0.8-2.5c0.7-1.5,1.5-2.8,2.6-4c1-1.1,2.2-2.2,3.5-3.1c1.2-0.8,2.5-1.6,3.7-2.3
	c2.5-1.4,5.2-2.6,7.9-3.5c2.8-1.1,5.8-1.7,8.8-1.7c2.9,0,5.8,0.3,8.6,0.7c2.8,0.4,5.6,0.9,8.1,1.1c2.6,0.1,5.2,0,7.9-0.3
	c2.6-0.4,5.3-0.9,7.9-1.5s5.4-1.3,8.2-1.8c1.2-0.2,2.4-0.6,3.5-1c1-0.4,2-1,2.9-1.7c0.8-0.7,1.4-1.5,1.8-2.4
	c0.2-0.4,0.3-0.9,0.4-1.4v-0.4v-0.5v-1c0-0.4,0-0.8-0.1-1.2c-0.1-0.3-0.3-0.6-0.5-0.8c-0.8-0.7-1.8-1.4-2.8-1.8
	c-2.3-1.1-4.7-2-7.2-2.5c-2.5-0.5-5.1-0.7-7.7-0.5c-1.3,0-2.6,0.2-4,0.4l-4.1,0.6c-7.2,1.2-14.5,2.8-21.4,4l-10,1.8l-4.7,0.9
	C258.5,458.6,257,458.9,255.5,459.4L255.5,459.4L255.5,459.4L255.5,459.4L255.5,459.4z"/>
<path class="st0" d="M254.7,459.7l-0.3,0.1L254.7,459.7z"/>
<path class="st0" d="M460.5,620.5c-0.6,4.5-1.2,9.1-2.1,13.6c-1.7,9-3.7,18-5.5,26.9c-0.9,4.5-1.8,9-2.5,13.5s-1,9-1.5,13.6
	c-0.8,9.1-1.6,18.2-2.2,27.4c-0.3,4.6-0.6,9.1-0.8,13.7s-0.4,9.2-0.8,13.8c-0.6,9.2-1.4,18.3-2.5,27.5c-0.5,4.6-1,9.2-2,13.8
	s-2.2,9-3.6,13.4l0.1-0.3c-2.2,7.6-5,15.4-7.9,22.8c-1.4,3.7-2.8,7.4-4.2,11s-2.3,7.1-3.2,10.4c-4.5,16.9-8.5,32.5-11.2,50
	c-1.9,10.5-4.2,21.5-6.6,32.5c-0.6,2.8-1.1,5.5-1.7,8.3c-0.6,2.7-1,5.5-1.2,8.2c0,1.3,0,2.9,0.7,2.8c0.6,0.1,1.2,0.1,1.7,0
	c0.6-0.1,1.3-0.3,2-0.5l4-1.1c1.1-0.3,2-1.2,2.4-2.3c0.3-0.8,0.6-1.6,0.8-2.5c0.2-0.8,0.4-1.7,0.5-2.5c0.1-1.8,0.2-3.5,0.1-5.3
	c0-3.6,0-7.2,0.2-10.8c0.5-7.2,1.4-14.3,2.5-21.3c0.5-3.5,1.2-7,2.1-10.5c0.8-3.5,1.6-6.9,2.4-10.3s1.4-6.9,2.1-10.3
	s1.3-6.9,2.2-10.4c1.7-6.9,3.8-13.7,6.1-20.3c0.6-1.7,1.1-3.3,1.8-5s1.3-3.3,2-5c1.4-3.3,2.8-6.5,4.1-9.8c1.3-3.2,2.4-6.5,3.3-9.9
	c0.7-3.4,1.2-6.9,1.6-10.4c0.4-3.5,0.6-7.1,1-10.7c0.3-3.6,0.8-7.3,1.5-10.8c1.4-7.7,3.6-15.1,4-22.7c0.4-7.8,0.9-15.5,1.6-23.2
	c1.3-15.5,3.5-30.9,5.3-46.3c0.5-3.8,0.8-7.7,1.2-11.6s1-7.7,1.5-11.5c1.1-7.7,2.3-15.3,3.5-23c2.4-15.2,4.8-30.4,7.2-45.7
	c0.6-5.1,1-10.2,1.6-15.3c0.3-2.6,0.7-5.1,1.2-7.6c0.3-1.2,0.6-2.4,0.8-3.6c0.2-1.1,0.4-2.3,0.3-3.5c0-0.2,0-0.5-0.1-0.7
	c0-0.1,0-0.1-0.1-0.2c0,0-0.1-0.1-0.1-0.1c-0.1-0.1-0.2-0.1-0.3-0.1c-0.2,0-0.4,0.1-0.5,0.2c-0.9,0.6-1.7,1.3-2.3,2.2
	c-1.4,1.9-2.5,3.9-3.5,6c-0.2,0.5-0.5,1-0.6,1.5s-0.3,1.1-0.5,1.6c-0.3,1.1-0.5,2.2-0.7,3.3c-0.4,2.2-0.8,4.3-1.1,6.4l0,0
	c-0.1,1-0.2,2.4-0.4,4.2c-0.6,7.8-1.4,15.5-2.3,23.2C461.6,611.4,461.1,615.9,460.5,620.5z"/>
</svg>
