<svg id="Vector" xmlns="http://www.w3.org/2000/svg" viewBox="0 0 650.45 955.5"><defs><style>.cls-1{fill:#fff;}.cls-2{fill:#f4f9ff;}</style></defs><path class="cls-1" d="M71.39,681.59a96.08,96.08,0,0,0-1.51-25c-2.44-12-7.09-19.45-13.83-22.09a23.75,23.75,0,0,0-8-1.09c-5.86,0-14.4,1.23-20.8,4.66A76,76,0,0,0,4.07,657.35a65.47,65.47,0,0,1,30.67-25.21l5-1.69c28.59-9.65,53.28-18,75.11-28.49,15.19-7.3,28-12.91,34.88-15.86-6.42,4-17.73,10.87-26.21,14.73-6.9,3.15-30.07,14-38.7,21.59-7.65,6.72-11.93,11-11,20.15.84,8.64,1.35,21.51,0,29.36A73.4,73.4,0,0,1,71.39,681.59Z" transform="translate(0 0)"/><path class="cls-2" d="M143.47,589.35a219.79,219.79,0,0,1-20.18,11c-6.91,3.15-30.14,14-38.82,21.66-7.54,6.63-12.12,11.17-11.2,20.58.84,8.61,1.35,21.43,0,29.22-.34,2-.76,3.87-1.19,5.54a94.57,94.57,0,0,0-1.72-20.87c-2.48-12.2-7.23-19.75-14.14-22.45A24,24,0,0,0,48,632.94c-5.92,0-14.55,1.23-21,4.71a75.18,75.18,0,0,0-16,11.49A64.55,64.55,0,0,1,34.9,632.61l5-1.69c28.6-9.66,53.29-18,75.15-28.51,11.27-5.41,21.22-9.9,28.42-13.06m11.53-6s-17.33,7.1-40.38,18.18-49.22,19.73-80,30.15A65.39,65.39,0,0,0,0,663.59c8.87-12.81,18.39-20.18,27.48-25.06,6-3.21,14.2-4.59,20.56-4.59a23.37,23.37,0,0,1,7.83,1c4.41,1.72,10.42,6.43,13.52,21.72a93.42,93.42,0,0,1,1.11,28.82A67.65,67.65,0,0,0,74.27,672c1.33-7.76.88-20.4,0-29.49s3.54-13.3,10.86-19.73,25.94-15.74,38.58-21.5,31.29-18,31.29-18Z" transform="translate(0 0)"/><path class="cls-1" d="M149.74,572.39s-.2-.14-.26-1.06c-.22-3.2,1.34-6.06,4.15-11.26,3-5.48,5.39-10.58,4.94-17.56a36.83,36.83,0,0,0-3-11.86c-.62-1.59-1.26-3.23-1.86-5.1l-.44-1.35c-1.78-5.47-3.07-9.42-.72-13.33A110,110,0,0,1,170.38,489a119.72,119.72,0,0,1,17.21-13,8.14,8.14,0,0,1,3.77-1.38h.16c.68,0,.92.22,1,.36.46.51.4,1.72.26,3.65-.22,2.93-.31,4.15-2.66,7a37.64,37.64,0,0,1-4,4,75.28,75.28,0,0,0-6.52,6.53c-4.45,5.1-7.15,10.22-11.16,19.08-4.18,9.2-4.95,14.9-5,17.48-.11,3.34,1.92,9.68,5.12,9.94h.38c2.53,0,3.32-2,5.44-7.39l.89-2.25c2.32-5.8,5.32-10.12,8.93-12.86a13.37,13.37,0,0,1,8.19-2.46,18.44,18.44,0,0,1,2.09.12c3.2.35,4.69,3,4.43,7.79-.21,4.1-5.38,8-8.7,8.85-3.66.88-9.08,3.2-12.34,6.8a33,33,0,0,1-10.47,7.86c-4,1.73-7.2,5.79-8.78,8.75a11.76,11.76,0,0,0-1.2,6.34,15.37,15.37,0,0,1-.07,2.37c-.21,1.58-1.72,2.23-3.18,2.86a11.08,11.08,0,0,0-1.58.77,11.28,11.28,0,0,0-1.26,1c-.53.46-1.25,1.1-1.57,1.1Z" transform="translate(0 0)"/><path class="cls-2" d="M191.36,475.14h.14a1.11,1.11,0,0,1,.69.19c.34.39.23,2,.13,3.28-.22,2.9-.3,4-2.55,6.76a39.67,39.67,0,0,1-4,3.94,75.87,75.87,0,0,0-6.56,6.56C174.79,501,172,506.37,168,515.08c-4.21,9.28-5,15.06-5.08,17.67-.11,3.43,2,10.17,5.58,10.45a3,3,0,0,0,.42,0c2.87,0,3.76-2.25,5.91-7.71l.88-2.24c2.29-5.72,5.24-10,8.77-12.66a12.92,12.92,0,0,1,7.89-2.35,20.23,20.23,0,0,1,2,.11c2.88.32,4.22,2.77,4,7.27-.2,3.74-5.12,7.61-8.33,8.39-3.73.9-9.26,3.27-12.59,7a32.33,32.33,0,0,1-10.3,7.74c-4.07,1.78-7.4,5.95-9,9a12.17,12.17,0,0,0-1.26,6.58,15.72,15.72,0,0,1-.07,2.3c-.15,1.2-1.24,1.75-2.87,2.46a8,8,0,0,0-3,1.87c-.28.24-.68.59-1,.81a3.73,3.73,0,0,1,0-.43c-.21-3,1.32-5.87,4.09-11,3-5.55,5.45-10.72,5-17.83a36.9,36.9,0,0,0-3.08-12c-.61-1.58-1.25-3.22-1.85-5.07-.14-.46-.29-.91-.43-1.35-1.74-5.34-3-9.2-.77-12.92a109.7,109.7,0,0,1,17.78-21.73,120.09,120.09,0,0,1,17.12-12.95,7.86,7.86,0,0,1,3.52-1.31m0-1a8.43,8.43,0,0,0-4,1.45A119.63,119.63,0,0,0,170,488.67a110.85,110.85,0,0,0-18,21.95c-2.66,4.43-.88,8.87,1.11,15.08s4.43,10,4.88,16.84-2,12-4.88,17.29S148.76,568,149,571.36c.07,1.13.36,1.53.78,1.53.8,0,2.07-1.53,3.1-2.19,1.55-1,4.65-1.45,5-4s-.56-5.21,1.22-8.54,5-7,8.53-8.54a33.36,33.36,0,0,0,10.64-8c3.11-3.43,8.43-5.76,12.08-6.65s8.87-5.1,9.09-9.31-.88-7.87-4.87-8.31a19.5,19.5,0,0,0-2.15-.12,13.94,13.94,0,0,0-8.49,2.56c-2.78,2.1-6.21,5.87-9.09,13.08-2.76,6.89-3.39,9.32-5.87,9.32h-.34c-2.77-.22-4.77-6.21-4.66-9.42s1.22-9,5-17.3,6.54-13.74,11.09-18.95S188.11,489,190.55,486s2.55-4.32,2.77-7.32.27-4.45-1.78-4.54Z" transform="translate(0 0)"/><path class="cls-1" d="M329.28,200.85a6,6,0,0,1-4.56-2c-2-2.2-2.87-6-2.43-10.76.17-1.91.56-5.26,1-9.15.72-6.34,1.63-14.22,2.15-20.29.42-5,1.2-11.37,1.89-17s1.27-10.4,1.43-13.1c.32-5.25.09-8.2-2-9.75a1.54,1.54,0,0,0-.92-.31c-2.19,0-4,5-4.52,8.46-.62,3.82-2.64,9.47-6.33,19.73l-.86,2.4c-4.34,12.1-14.46,24.69-27.08,33.68-11.17,7.95-18,12-24.26,12a14.62,14.62,0,0,1-3.07-.32c-5.28-1.08-9.23-9.83-11.13-24.62-1-7.74,1.18-18.23,6-28.77,4.21-9.33,9.24-18.52,12.8-23.41s5.37-7.38,3.52-9.5a4,4,0,0,0-3-1.58c-1.72,0-3.87,1.2-6.78,3.76-5.63,5-14.72,15.84-20.26,24.26S230,160.39,228.52,167.78c-1.4,6.79-5.34,14.66-11,16.93a8.39,8.39,0,0,1-3.11.6c-3.89,0-8.19-2.61-14.72-6.55l-2.57-1.56a43.88,43.88,0,0,1-16.66-17.76c-1.09-2.06-2.31-3.1-3.63-3.1s-2.6,1.07-3.68,3.1-.83,5.79-.46,10a75.62,75.62,0,0,1,.4,8.39c-.18,5.78-1.86,12.54-6,12.54a4.47,4.47,0,0,1-1.11-.15c-4.71-1.23-6.91-6.61-8.72-21.3-1.74-14.17,3.77-21.94,7.41-27.08a172.85,172.85,0,0,0,12.27-20.07,56.68,56.68,0,0,0,5.69-16.29,84.07,84.07,0,0,1-.48,12c-1,10-.82,22.08,2,25.17a2.2,2.2,0,0,0,1.68.82c3.5,0,4.56-5.39,5.42-9.73.19-1,.36-1.87.55-2.62L192,130a180.27,180.27,0,0,1,8-24.87C205.56,91,212.5,79.81,227.22,61.51c-1.2,5.45-4.36,20.19-5,28.07-.1,1.18-.21,2.41-.33,3.66-.76,8.2-1.55,16.68.75,19.21a2.27,2.27,0,0,0,1.74.78c3.1,0,4.21-4.07,5.75-9.7a84.71,84.71,0,0,1,3.53-10.9c1.75-4.17,8.53-19.1,22.7-36.28,15.06-18.26,22.92-23.68,32.86-30.54l1.62-1.12A169.79,169.79,0,0,0,317.69,2.25c-1.54,3.75-4.65,11-7.46,15.44a232.81,232.81,0,0,0-15.17,29.5A67.19,67.19,0,0,0,289,71.62l-.12,1.5c-.31,3.56,0,5.83,1,6.92a2.3,2.3,0,0,0,1.78.77c1.94,0,4.36-4.17,6.47-11.16,2-6.77,7.6-18.31,16.52-28.59a84.84,84.84,0,0,1,29.54-22.15c-2.19,6.28-4.8,11.23-8.73,17.91-1,1.7-2.1,3.26-3.07,4.64-2.67,3.77-4.78,6.75-2.14,9a4.45,4.45,0,0,0,3,1c2.64,0,5.8-1.67,9.14-3.44.86-.46,1.72-.91,2.57-1.34s1.5-.74,2.23-1.09c4.21-2,8.56-4.16,22.92-13.4,14.73-9.48,28.45-25.25,31.56-28.92,1.83,8.31,3.74,23.58,4.42,35.51.61,10.75,1.89,33.12-1.3,42-2,5.68-2.44,10-1.1,11.92a1.92,1.92,0,0,0,1.57.89c1.52,0,2.94-1.26,7.14-5,1-.88,2.15-1.91,3.5-3.09,6.17-5.43,29.43-25.71,33.48-29.24a171.93,171.93,0,0,1,4.93,30.22c.77,11.32,1.42,33-2.82,50.73-2.82,11.82-14,27.8-18,33.2,3.51-16,3.62-25,3.66-28.07a123.6,123.6,0,0,0-1.67-18.06l-.05-.28c-.64-3.49-1.77-8.14-4.3-8.14a2.67,2.67,0,0,0-1.6.62c-2.08,1.59-2.36,4.62-2.74,8.82a56.27,56.27,0,0,1-2.09,12.05c-2.62,8.57-8.74,19.12-18.71,32.27-6.9,9.1-18.43,21-34.17,26.09-15.92,5.13-35.9,5.13-42.47,5.13Z" transform="translate(0 0)"/><path class="cls-2" d="M401.39,4.35a275.88,275.88,0,0,1,4.2,34.45c.56,9.88,1.89,33-1.27,41.84-2.13,5.91-2.49,10.31-1,12.37a2.4,2.4,0,0,0,2,1.1c1.71,0,3.16-1.29,7.48-5.14,1-.88,2.14-1.91,3.49-3.09,5.91-5.19,27.5-24,32.87-28.7a172.28,172.28,0,0,1,4.71,29.35c.76,11.29,1.42,32.87-2.8,50.58-2.52,10.55-11.8,24.49-16.5,31.09,3-14.6,3.13-22.93,3.17-25.85A121.91,121.91,0,0,0,436,124.2l-.05-.28c-.72-4-1.92-8.55-4.79-8.55a3.14,3.14,0,0,0-1.9.72c-2.26,1.73-2.55,4.85-2.94,9.18a56.37,56.37,0,0,1-2.07,12c-2.6,8.51-8.7,19-18.63,32.1-6.86,9.05-18.31,20.9-33.92,25.93-15.85,5.1-35.77,5.1-42.32,5.1h-.1a5.44,5.44,0,0,1-4.19-1.83c-1.91-2.09-2.73-5.78-2.31-10.38.18-1.9.57-5.25,1-9.14.73-6.34,1.64-14.23,2.15-20.29.43-5,1.21-11.36,1.89-17s1.28-10.42,1.44-13.13c.33-5.44.08-8.5-2.24-10.18a2,2,0,0,0-1.21-.41c-2.95,0-4.62,6.41-5,8.88-.6,3.77-2.62,9.4-6.29,19.63l-.87,2.41c-4.3,12-14.36,24.51-26.9,33.44-11.08,7.89-17.83,11.89-24,11.89a14.87,14.87,0,0,1-3-.3c-5.06-1-8.88-9.64-10.74-24.2-1-7.54,1.24-18.2,5.9-28.51,4.14-9.15,9.27-18.52,12.76-23.32,3.61-5,5.6-7.7,3.49-10.11a4.38,4.38,0,0,0-3.39-1.76c-1.85,0-4.11,1.23-7.11,3.88-5.66,5-14.79,15.91-20.35,24.37-6,9-11,26.71-12.34,33.38s-5.21,14.37-10.7,16.56a7.59,7.59,0,0,1-2.92.57c-3.75,0-8-2.58-14.46-6.48l-2.57-1.56a43.4,43.4,0,0,1-16.48-17.56c-1.18-2.24-2.55-3.37-4.07-3.37-1.06,0-2.64.58-4.13,3.36-1.21,2.29-.89,6-.51,10.29a71.51,71.51,0,0,1,.4,8.33c-.18,6-2,12.06-5.53,12.06a3.86,3.86,0,0,1-1-.14c-4.41-1.15-6.59-6.61-8.35-20.88-1.72-14,3.5-21.34,7.32-26.72l0-.07a171.94,171.94,0,0,0,12.26-20,55.16,55.16,0,0,0,4.77-12.1c-.05,2.08-.19,4.58-.49,7.53-.79,7.76-1.23,21.87,2.09,25.56a2.75,2.75,0,0,0,2.06,1c3.92,0,5-5.62,5.91-10.13.19-1,.36-1.86.55-2.6.09-.36.18-.75.29-1.17a176.85,176.85,0,0,1,8-24.81c5.32-13.62,12-24.5,25.76-41.79-1.41,6.49-4,18.9-4.57,26.05-.1,1.17-.22,2.4-.34,3.65-.94,10.21-1.4,17.09.88,19.59a2.8,2.8,0,0,0,2.11,1c3.48,0,4.63-4.22,6.23-10.07a86.45,86.45,0,0,1,3.51-10.84c1.74-4.15,8.5-19,22.63-36.15,15-18.21,22.84-23.61,32.75-30.45l1.63-1.12A173.18,173.18,0,0,0,316.22,4.47a101.91,101.91,0,0,1-6.42,13A234.64,234.64,0,0,0,294.6,47a67.82,67.82,0,0,0-6.11,24.58q-.06.78-.12,1.5c-.32,3.77.05,6.09,1.17,7.31a2.82,2.82,0,0,0,2.15.93c3,0,5.65-7.22,6.95-11.52,2-6.72,7.55-18.18,16.42-28.4a83.83,83.83,0,0,1,28.28-21.51,98.82,98.82,0,0,1-8.28,16.69c-1,1.67-2.08,3.23-3.05,4.6-2.59,3.67-5,7.13-2.05,9.64A4.92,4.92,0,0,0,333.25,52c2.77,0,6-1.7,9.37-3.5.85-.45,1.72-.91,2.56-1.33L347.41,46c4.22-2.05,8.58-4.17,23-13.43,13.91-9,26.93-23.49,31-28.25M319.13,0a166.7,166.7,0,0,1-28.6,24.28C279.72,31.76,271.86,36.74,256,56c-12.53,15.19-19.74,29.13-22.78,36.41-4.38,10.48-4.49,20.29-8.82,20.29s-2.49-13.3-1.66-23.11,5.49-30.1,5.49-30.1c-15.63,19.29-23,30.93-28.6,45.4a178.91,178.91,0,0,0-8.31,26.1c-1,4-1.67,12-5.49,12s-4.32-14-3.16-25.44.06-16.18.06-16.18a54.7,54.7,0,0,1-6.21,20.17,173.45,173.45,0,0,1-12.19,20c-3.77,5.32-9.32,13.08-7.54,27.49s4,20.39,9.09,21.72a5,5,0,0,0,1.23.17c4.26,0,6.32-6.33,6.53-13,.22-7.31-1.78-14.85,0-18.17.93-1.76,2.06-2.84,3.24-2.84s2.14.85,3.19,2.84a44.46,44.46,0,0,0,16.84,17.95c8,4.81,13,8.18,17.55,8.18a8.67,8.67,0,0,0,3.29-.64c5.55-2.22,9.76-9.75,11.31-17.29s6.65-24.61,12.19-33,14.63-19.29,20.18-24.17c3.06-2.69,5-3.63,6.45-3.63a3.44,3.44,0,0,1,2.64,1.41c1.55,1.78,0,4-3.55,8.87s-8.65,14.19-12.86,23.5-7.09,20.4-6,29,4,23.5,11.52,25a15.51,15.51,0,0,0,3.17.33c6.48,0,13.3-4.07,24.55-12.08,13.08-9.31,23.05-22.16,27.26-33.91s6.54-18.07,7.21-22.22c.59-3.69,2.36-8,4-8a1.07,1.07,0,0,1,.63.22c1.83,1.33,2.16,3.82,1.82,9.31s-2.49,20.28-3.32,30.09-2.7,24.44-3.16,29.43c-.78,8.43,2.5,13.3,7.49,13.3h.1c9.72,0,27.71-.35,42.62-5.15s26.61-16,34.42-26.27,15.63-22.11,18.79-32.42,1.16-18,4.65-20.62a2.2,2.2,0,0,1,1.3-.52c2.54,0,3.57,6.49,3.86,8a122.52,122.52,0,0,1,1.66,18c-.05,4-.33,13.62-4.16,30.25,0,0,16-20.62,19.46-35.25s4-33.75,2.83-50.88a167.84,167.84,0,0,0-5.16-31.09s-27.27,23.77-34.08,29.76-8.65,8-10.31,8-3.16-3.32,0-12.14,2-30.59,1.33-42.23-2.66-28.1-4.66-36.58c0,0-15.3,18.79-32.09,29.6s-19.79,11.8-25.11,14.46c-4.05,2-8.29,4.73-11.48,4.73a4,4,0,0,1-2.65-.9c-3.16-2.66,1.7-6.8,5.32-13,4.3-7.32,6.93-12.46,9.15-19.12-12.64,5.82-21.95,12.63-30.76,22.78S299.84,62.35,297.68,69.5s-4.49,10.81-6,10.81-2.82-1.33-2.32-7.15S290,60,295.52,47.39A230.16,230.16,0,0,1,310.65,18c4-6.32,8.48-18,8.48-18Z" transform="translate(0 0)"/><path class="cls-1" d="M251.52,595.24c-2.73-.82-11.15-4-14.73-12.76-4.36-10.69-8.49-20.79-10.31-40.66,2.45,1.22,9.82,5.13,10.69,8.6,1.56,6.24,5.52,21.58,8.67,29.33C248.49,586.3,250.74,592.91,251.52,595.24Z" transform="translate(0 0)"/><path class="cls-2" d="M227.06,542.67c3.4,1.75,8.94,5.11,9.63,7.87,1.56,6.25,5.53,21.62,8.69,29.4,2.35,5.8,4.38,11.65,5.35,14.52-3.29-1.15-10.32-4.44-13.48-12.17-4.28-10.49-8.33-20.42-10.19-39.62M225.91,541c1.77,20.39,6,30.81,10.42,41.68s16,13.3,16,13.3-2.66-8.2-6-16.41-7.54-24.83-8.64-29.26S225.91,541,225.91,541Z" transform="translate(0 0)"/><path class="cls-1" d="M520.2,551.19c-3.61,0-10.08-.3-12.9-2.3s-3.93-4.8-5.4-8.17a58.76,58.76,0,0,0-2.76-5.74c-3.55-6.26-10.42-14.73-16.68-18.8-3.3-2.14-7.59-3.73-11.38-5.14-3.21-1.19-6.24-2.32-7-3.28-.22-.28-.47-.66-.42-.93s.76-.75,1.55-1.19a14.7,14.7,0,0,0,2.47-1.63c3-2.61,10.41-9.73,13.67-19.39s-3.48-17-7.81-20.4a40.28,40.28,0,0,0-24.8-8.64c-10.11-.26-15.15-.58-16.88-.71a113.35,113.35,0,0,1,6.68-12c3,.55,25.69,4.94,41.46,12.31s24.71,12.64,28.58,20.39c3.35,6.7.54,9.47-2.72,12.67l-.73.72c-3.83,3.83-6.94,9-1,18.79,5,8.17,8.87,11.32,12,13.86.65.52,1.27,1,1.87,1.56,4,3.46,5.77,8.17,4.83,12.6-1.05,5-1.88,9.85-.49,15.37C521.85,551.17,521.1,551.19,520.2,551.19Z" transform="translate(0 0)"/><path class="cls-2" d="M438.76,443.44c4,.76,25.78,5.1,41,12.22,18.05,8.43,24.93,13.33,28.35,20.15,3.18,6.38.62,8.9-2.63,12.09l-.73.73c-4,4-7.19,9.37-1,19.41,5.06,8.23,8.95,11.41,12.09,14,.65.53,1.26,1,1.85,1.55,3.83,3.35,5.57,7.88,4.67,12.12-1,4.64-1.83,9.6-.63,15h-1.5c-6,0-10.63-.8-12.61-2.2-2.55-1.82-3.74-4.54-5.23-8a63.41,63.41,0,0,0-2.79-5.78c-3.57-6.31-10.5-14.85-16.84-19-3.35-2.17-7.67-3.77-11.48-5.19-3-1.11-6.11-2.27-6.8-3.13a2.07,2.07,0,0,1-.32-.5,5.48,5.48,0,0,1,1.31-.87,14.55,14.55,0,0,0,2.54-1.68c3.06-2.64,10.53-9.83,13.82-19.61,3.4-10.08-3.54-17.45-8-20.95-7.15-5.64-15.36-8.5-25.09-8.75-8.93-.23-13.9-.51-16.11-.66a109.53,109.53,0,0,1,6.14-11m-.47-1.1a111,111,0,0,0-7.21,13s4.55.45,17.63.78,20.84,5.65,24.5,8.54,11,10,7.64,19.84-11.08,17.07-13.52,19.17-5.43,2.22-3.66,4.44,12.2,4.43,18.51,8.53,13.2,12.75,16.52,18.62,4.1,11.09,8.31,14.08c2.92,2.07,9.45,2.39,13.19,2.39,1.66,0,2.78-.06,2.78-.06-1.56-5.54-.78-10.53.33-15.74s-1.44-10-5-13.08-7.76-5.54-13.74-15.3-2.66-14.63.88-18.18,7.32-6.42,3.55-14-11.75-12.64-28.82-20.62-41.9-12.41-41.9-12.41Z" transform="translate(0 0)"/><path class="cls-1" d="M291.77,420.28c-7.27,0-12.85-2.65-15.43-4.92-3.55-3.14-5.38-10.81-1-20.26,4.29-9.22,8.91-19.76,9.36-28.11.06-1.08.17-2.25.28-3.54.78-8.46,2.07-22.62-7.41-47-10.75-27.65-20.83-32-30.58-36.19l-.5-.22c-4.15-1.79-9.54-2.7-16-2.7a93.93,93.93,0,0,0-22,2.9,113,113,0,0,0-13,4.17c-4.46,1.67-8,3-12.63,3.35l-.87,0c-7.51,0-11.67-8.07-15-14.55-3.58-6.93-4.13-20,1.07-30,5.08-9.72,9.08-17.39,11.57-27.82,2.08-8.68,3.85-18.92,4.32-21.7,40.18,24.26,55.44,27.18,85.67,33l1,.19a341.36,341.36,0,0,0,61.2,6c11,0,20.35-.78,27-2.25,16.56-3.66,57.31-15.8,70.51-28,9.43-8.77,13.12-10.1,14.21-10.29-.37,9.49,1.35,14.92,4.17,23.81,1.34,4.2,2.85,9,4.52,15.28,5.24,19.89,6.18,33.47,6.19,33.6l0,.73.66-.31c.12-.05,3.11-1.54,13.93-15.44s17.14-18.27,24.91-22.93,12.51-6.59,16.62-6.81H515a3.26,3.26,0,0,1,2.86,1.17,3.15,3.15,0,0,1,.24,2.82c-.36,1-1.87,1.73-3.47,2.54a27.7,27.7,0,0,0-3,1.66c-1.68,1.12-16.69,11.27-24.5,21.62-7.67,10.15-9.39,13.89-10.71,17.41-1.19,3.18-1,8.22.65,13.84,1.22,4.26.55,13.21-3.09,22.06-3.71,9.05-15.24,33.76-21.91,45.17-6.56,11.2-12.06,17.8-20.78,18.37-.36,0-.71,0-1,0-5,0-5.2-2.66-5.36-5.24,0-.27,0-.52-.06-.77-.42-4.71.94-18.64,7.69-29.4a65.45,65.45,0,0,0,10.27-33.29c.24-11.6-.89-19.87-7.27-25.22-2.42-2-14-7.88-28.15-7.88a45.3,45.3,0,0,0-10.2,1.13,56.78,56.78,0,0,1-12.73,1.58c-6.27,0-11.14-1.31-16.29-2.69-2.26-.61-4.6-1.24-7.12-1.78a76.36,76.36,0,0,0-16.14-2c-9,0-18.12,2.12-28.72,6.68C295,277.16,294.38,278.82,295,281.19c.23.83.9,1.83,2.8,1.83h0a11.84,11.84,0,0,0,4.06-.95,47.12,47.12,0,0,1,17.26-3.44c6.26,0,12.81,1.32,20.54,4.16-35.79,19.14-37.91,32.19-39.63,42.7l-.17,1c-1.83,11,4.12,23.32,9.36,34.22,2.19,4.55,4.05,8.32,5.85,12,2.7,5.45,5.25,10.59,8.33,17.29,3.86,8.39,5,14.81-1.44,20.94-4.33,4.14-10.95,5.66-19.34,7.6l-3.93.92A29.82,29.82,0,0,1,291.77,420.28Z" transform="translate(0 0)"/><path class="cls-2" d="M443,193c-.27,9.16,1.44,14.57,4.22,23.3,1.33,4.19,2.84,8.94,4.5,15.26,5.23,19.83,6.17,33.37,6.18,33.51l.09,1.45,1.33-.61c.31-.15,3.41-1.83,14.11-15.59s17.06-18.18,24.78-22.82,12.36-6.52,16.38-6.73H515a2.76,2.76,0,0,1,2.45,1,2.71,2.71,0,0,1,.19,2.36c-.3.78-1.73,1.5-3.24,2.26a28.15,28.15,0,0,0-3,1.69c-1.7,1.13-16.77,11.33-24.63,21.74-7.72,10.2-9.45,14-10.78,17.54-1.68,4.48-.32,10.79.64,14.15,1.19,4.18.52,13-3.07,21.74-3.71,9-15.23,33.71-21.89,45.1-6.46,11.05-11.87,17.57-20.37,18.12-.35,0-.69,0-1,0-4.56,0-4.7-2.21-4.87-4.77,0-.27,0-.53-.05-.79-.42-4.65.93-18.43,7.61-29.08a66,66,0,0,0,10.35-33.55c.25-11.75-.92-20.14-7.45-25.61-3.23-2.7-15.26-8-28.47-8a45.63,45.63,0,0,0-10.31,1.14,55.82,55.82,0,0,1-12.62,1.57c-6.21,0-11-1.3-16.16-2.68-2.27-.61-4.61-1.24-7.15-1.78a76.41,76.41,0,0,0-16.24-2c-9.07,0-18.26,2.13-28.92,6.72-20.58,8.85-22.22,10.79-21.41,13.71a3,3,0,0,0,3.29,2.2,12.37,12.37,0,0,0,4.24-1,46.61,46.61,0,0,1,17.08-3.41,57.45,57.45,0,0,1,19.32,3.75c-35.06,19-37.19,32-38.9,42.53l-.17,1c-1.85,11.11,4.12,23.55,9.4,34.51,2.19,4.56,4.05,8.32,5.85,12,2.7,5.45,5.25,10.6,8.33,17.29,5.07,11,3.25,16-1.34,20.37-4.23,4-10.79,5.55-19.1,7.47l-3.94.92a29.33,29.33,0,0,1-6.84.81c-7.13,0-12.59-2.58-15.1-4.8-3.42-3-5.15-10.46-.86-19.67s8.94-19.86,9.4-28.3c.06-1.06.17-2.25.28-3.52.78-8.5,2.08-22.73-7.44-47.22C267.22,288.43,257,284,247.2,279.8l-.5-.22c-4.22-1.82-9.67-2.74-16.19-2.74a94.4,94.4,0,0,0-22.14,2.91,113.13,113.13,0,0,0-13.06,4.2c-4.42,1.65-7.91,2.95-12.49,3.31l-.83,0c-7.2,0-11.29-7.91-14.57-14.28l0-.06c-3.48-6.76-4-19.62,1.11-29.46s9.1-17.45,11.61-27.94c1.93-8.06,3.6-17.46,4.2-21,39.79,23.95,55.07,26.88,85.21,32.65l1,.19a341.45,341.45,0,0,0,61.29,6c11,0,20.43-.78,27.13-2.26,16.6-3.67,57.47-15.86,70.74-28.18,8.07-7.49,11.85-9.47,13.35-10m.81-1.19c-.88,0-4.43.78-14.84,10.45-12.42,11.53-51.21,23.72-70.28,27.93-6.92,1.53-16.28,2.24-26.91,2.24a343.12,343.12,0,0,1-61.1-6c-31.26-6-46.11-8.65-87.13-33.48,0,0-2,12.19-4.43,22.39S172.92,232.83,167.6,243s-4.65,23.5-1.11,30.37c3.42,6.63,7.66,14.89,15.5,14.89l.91,0c8.42-.67,13.3-4.44,25.71-7.54a93.39,93.39,0,0,1,21.9-2.88c5.89,0,11.42.77,15.79,2.66,9.76,4.21,19.95,8.2,30.82,36.13s7.54,42.13,7.09,50.33-4.88,18.4-9.31,27.93-2.66,17.52,1.11,20.84c2.86,2.53,8.67,5,15.76,5a30.13,30.13,0,0,0,7.07-.84c10.2-2.43,18.4-3.76,23.5-8.64s6.65-10.42,1.55-21.51-8.64-17.73-14.18-29.26-11.09-23.28-9.31-33.92,2.78-23.94,40.52-43.89c-8.38-3.19-15.36-4.59-21.76-4.59a47.44,47.44,0,0,0-17.43,3.48,11.66,11.66,0,0,1-3.89.91,2.1,2.1,0,0,1-2.32-1.47c-.56-2,.22-3.66,20.84-12.52,11.7-5,20.77-6.64,28.52-6.64a75.43,75.43,0,0,1,16,2c8.2,1.74,14.39,4.48,23.51,4.48a56.8,56.8,0,0,0,12.85-1.6,45,45,0,0,1,10.08-1.11c13.45,0,25.11,5.49,27.83,7.76,6.48,5.44,7.31,14.25,7.09,24.83a64.54,64.54,0,0,1-10.2,33c-7.09,11.3-8.13,25.55-7.76,29.7.23,2.59-.15,6.47,5.92,6.47.33,0,.69,0,1.07,0,8.74-.57,14.29-6.87,21.17-18.62s18.4-36.58,21.95-45.23,4.43-17.73,3.1-22.39-2-10-.67-13.52,3.11-7.32,10.65-17.29,21.72-19.73,24.38-21.51,6-2.66,6.65-4.43.25-4.67-3.57-4.67h-.42c-4.21.23-9.09,2.22-16.85,6.88s-14.19,9.09-25.05,23.05S458.91,265,458.91,265s-.89-13.52-6.21-33.7-9.31-25.27-8.65-39.46a.65.65,0,0,0-.23,0Z" transform="translate(0 0)"/><path class="cls-1" d="M486,548.05c-1.93,0-3.85-.25-4.85-2.09-1.35-2.48-4.34-5.55-9.68-10-1.1-.9-2.18-1.81-3.27-2.73a125.82,125.82,0,0,0-20.41-14.69c-12-6.86-16-9.17-17.05-16.19-.79-5.31-.61-8.58.56-10a2.43,2.43,0,0,1,1.88-.88c1.23-.06,3-.11,5-.17,3.67-.11,8.24-.23,12.76-.5,6.38-.37,10.22-1.08,15.59-4.2-1.73,2.82-5.61,8.5-10.49,11.59-4.6,2.92-8.45,5.59-9,8.69a5.41,5.41,0,0,0,1.38,4.35c3.22,4.1,8.75,7.87,15.14,12.24,1,.65,1.94,1.31,2.92,2,5.2,3.58,11.29,8.19,15.31,11.24,1.76,1.33,3,2.29,3.64,2.73a13.42,13.42,0,0,1,4.38,6.21,2,2,0,0,1-.08,1.72,2.61,2.61,0,0,1-2.1.64H486Z" transform="translate(0 0)"/><path class="cls-2" d="M465,488c-2,3-5.3,7.27-9.27,9.79-4.71,3-8.64,5.72-9.21,9a6,6,0,0,0,1.47,4.74c3.27,4.16,8.83,7.95,15.27,12.34l2.91,2c5.19,3.57,11.27,8.17,15.29,11.22,1.76,1.33,3,2.3,3.65,2.74a12.79,12.79,0,0,1,4.19,5.93,1.62,1.62,0,0,1,0,1.29,2.31,2.31,0,0,1-1.7.44H486c-2.05,0-3.58-.31-4.41-1.83-1.38-2.54-4.41-5.65-9.8-10.1-1.1-.91-2.18-1.82-3.26-2.74A125.68,125.68,0,0,0,448,518.15c-11.8-6.77-15.78-9.06-16.79-15.83-.76-5.09-.61-8.33.45-9.63a1.93,1.93,0,0,1,1.52-.69c1.22-.06,3-.11,5-.17,3.67-.11,8.25-.23,12.77-.5,5.76-.34,9.48-.95,14.08-3.32m2.9-2.83c-6.15,3.9-10,4.74-17,5.15s-14.38.5-17.79.67-4,4.24-2.91,11.47,5.36,9.71,17.29,16.54c11.31,6.49,17.14,12,23.61,17.38,5.83,4.81,8.38,7.65,9.56,9.81s3.33,2.35,5.29,2.35l1.69,0c2.25,0,3.25-.92,2.66-3a13.88,13.88,0,0,0-4.57-6.48c-2-1.41-11.47-8.81-19-14s-14.3-9.48-18-14.13.66-8,7.48-12.3,11.64-13.47,11.64-13.47Z" transform="translate(0 0)"/><path class="cls-1" d="M584.12,642.43c-1-6.86-2.34-20.64.31-33.72a177,177,0,0,1,4.57-18.2c1.1-3.62,1.76-5.8,1.87-9.16.26-7.66-2.52-11.91-9-13.79a66.71,66.71,0,0,0-19.3-3c-1.07,0-2.17,0-3.25.08-4.89.26-8.15.37-10.92.37-1.78,0-3.4,0-5.44-.14-1.23-.07-2.4-.2-3.65-.33a55.6,55.6,0,0,0-6.77-.46c-.71,0-1.43,0-2.16,0a70.7,70.7,0,0,1,13.24-1.37c3.29-.1,6.64-.47,10.18-.85A140.77,140.77,0,0,1,570,560.8c10.84,0,21.62,1.82,33.93,5.72,23.63,7.48,31.92,16.54,39.24,24.53q.72.8,1.44,1.56c-5.3-3.85-13.17-9-20-11.09a20.69,20.69,0,0,0-6-1c-9.46,0-15.32,7.74-19.37,14.49a115.93,115.93,0,0,0-13.36,35.63C584.88,636,584.38,639.83,584.12,642.43Z" transform="translate(0 0)"/><path class="cls-2" d="M570,561.3c10.79,0,21.52,1.81,33.78,5.69,21.65,6.86,30.36,15,37.28,22.5-4.88-3.29-10.86-6.77-16.28-8.44a21.06,21.06,0,0,0-6.19-1c-4.7,0-11.87,1.52-19.8,14.73a116.51,116.51,0,0,0-13.42,35.8c-.58,3.07-1,5.64-1.29,7.78-.82-7.43-1.38-18.73.81-29.57a178.63,178.63,0,0,1,4.56-18.15c1.11-3.65,1.78-5.86,1.89-9.28.26-7.93-2.62-12.34-9.37-14.29a67.38,67.38,0,0,0-19.44-3c-1.08,0-2.18,0-3.28.08-4.87.26-8.13.37-10.89.37-1.77,0-3.39,0-5.41-.14-1.22-.06-2.39-.19-3.62-.33-1-.11-2-.22-3.16-.31,2-.21,4.46-.38,7.42-.47,3.32-.1,6.67-.47,10.22-.86A142.42,142.42,0,0,1,570,561.3m0-1c-10.61,0-18.65,1.73-26.44,2-14.41.44-16.84,2.66-16.84,2.66a53.52,53.52,0,0,1,5.78-.34c4.34,0,7.2.63,10.4.79,1.84.09,3.52.14,5.46.14,2.75,0,6-.11,10.94-.37,1.1,0,2.18-.08,3.23-.08a67,67,0,0,1,19.17,3c6.87,2,8.86,6.65,8.64,13.3s-2.66,8.64-6.43,27.27.45,38.35.45,38.35-.23-4.44,2-16.19a116.35,116.35,0,0,1,13.3-35.47c4.9-8.16,10.69-14.24,18.94-14.24a20.08,20.08,0,0,1,5.89.94c11.53,3.55,25.94,15.74,25.94,15.74-10.86-9.75-15.52-22-46.33-31.7C590,561.56,579.06,560.3,570,560.3Z" transform="translate(0 0)"/><path class="cls-1" d="M339.53,631.22a170.69,170.69,0,0,1-24.65-1.83c-22.31-3.17-47.46-9.42-58.8-12.62-11.71-3.3-30.91-9.4-39.08-12.62l-1.26-.5c-7.07-2.76-13.17-5.16-11.64-9.74,1.66-5,3.07-7.53,5.41-9.77a7,7,0,0,1,4.81-1.46,12.72,12.72,0,0,1,7,2c.65.46,1.6,1.23,2.8,2.22a159.55,159.55,0,0,0,20,14.2c.22.14,23.43,14.51,48.95,18.47a240.47,240.47,0,0,0,36.21,2.83h0c14.73,0,27.2-1.52,36.06-4.4a228.67,228.67,0,0,0,30.22-12.21c2.65-1.24,5.46-2.55,8.63-4,6.63-3,11.16-5.54,14.47-7.39,3.94-2.2,6.31-3.53,8.63-3.65h.52a3.76,3.76,0,0,1,3.09,1.07c.71.86.85,2.31.42,4.44-.77,3.87-4.69,8.17-7.81,10.69-.31.25-.72.6-1.22,1-4.92,4.23-19.89,17.12-43.75,20.13C363,630,351.11,631.22,339.53,631.22Z" transform="translate(0 0)"/><path class="cls-2" d="M214.32,583.18h0A12.51,12.51,0,0,1,221,585c.64.46,1.58,1.23,2.78,2.2a157.16,157.16,0,0,0,20,14.24c.23.15,23.52,14.57,49.15,18.54a240,240,0,0,0,36.28,2.84c14.79,0,27.32-1.53,36.23-4.43a228.07,228.07,0,0,0,30.27-12.23c2.68-1.25,5.46-2.55,8.63-4,6.64-3,11.18-5.56,14.5-7.41,3.88-2.17,6.22-3.48,8.41-3.59h.5a3.42,3.42,0,0,1,2.71.88c.59.73.7,2.09.31,4-.75,3.73-4.58,7.93-7.63,10.39-.31.25-.73.61-1.24,1-4.89,4.21-19.77,17-43.48,20-15.45,1.94-27.34,3.15-38.89,3.15A171.12,171.12,0,0,1,315,628.9c-22.28-3.17-47.4-9.42-58.73-12.61-11.7-3.3-30.88-9.39-39-12.61l-1.26-.49c-7.89-3.09-12.66-5.19-11.35-9.12,1.85-5.54,3.34-7.7,5.29-9.57a6.51,6.51,0,0,1,4.46-1.32m0-1a7.47,7.47,0,0,0-5.15,1.6c-2.27,2.17-3.77,4.65-5.54,10s5.32,7.76,13.19,10.87,26.93,9.2,39.13,12.63a507.8,507.8,0,0,0,58.86,12.64,172.47,172.47,0,0,0,24.72,1.83c11.58,0,23.39-1.19,39-3.16,26.38-3.33,41.79-18.51,45.23-21.28s7.2-7.1,8-11c.74-3.71,0-6.11-4-6.11h-.55c-4.43.23-8.64,4.44-23.27,11.09s-21.73,10.64-38.8,16.18c-9.24,3-22,4.38-35.92,4.38A240.6,240.6,0,0,1,293.08,619c-25.72-4-48.77-18.41-48.77-18.41-12.53-7.48-20-14.44-22.73-16.4a13.31,13.31,0,0,0-7.26-2Z" transform="translate(0 0)"/><path class="cls-1" d="M281.38,602.4c-5.32,0-10-4.25-15.52-14.21-3.74-6.7-8.24-20.12-10-25.6A102.58,102.58,0,0,0,275,579.85l1.91,1.41a138.41,138.41,0,0,0,12.4,7.67,103.87,103.87,0,0,1,9,5.55c1.61,1.22,2.4,2.36,2.29,3.31-.13,1.13-1.53,2-2.68,2.49C295.26,601.49,288.13,602.4,281.38,602.4Z" transform="translate(0 0)"/><path class="cls-2" d="M257.09,564.76a105.05,105.05,0,0,0,17.64,15.5l1.9,1.4a140.07,140.07,0,0,0,12.45,7.71,100,100,0,0,1,9,5.51c1.44,1.09,2.18,2.1,2.09,2.85s-.93,1.44-2.39,2.09c-2.66,1.18-9.7,2.08-16.38,2.08-5.13,0-9.64-4.18-15.09-14-3.27-5.85-7.13-16.89-9.21-23.18m-2.47-4.43s6,19.46,10.8,28.1,9.65,14.47,16,14.47,13.8-.83,16.79-2.16,4.65-3.5.5-6.66-15.3-8.66-21.45-13.22-13.64-9.55-22.61-20.53Z" transform="translate(0 0)"/><path class="cls-1" d="M294.75,955c-1.63,0-2.45-.78-2.73-2.62-.08-.43-8.24-39.87-11.09-54.12-2.75-13.75-9.46-38.71-15.78-51.12-2.72-5.34-8.43-17-14.47-29.26-7.74-15.76-16.52-33.63-21-42.35-8-15.45-28.57-60.22-35.89-80.85-6.33-17.84-25.17-74.85-28.58-101.88-.23-1.14-.59-4.29.55-5.59.71-.81,2.71-1.44,4.56-1.44.88,0,3,.16,3.4,1.68.1.4.39,1.62.83,3.52,8.86,38,17.25,67.93,24.95,89,13.44,36.74,41,94.4,52.79,117.11,12.21,23.56,22.64,51.55,29.23,70.88,6.25,18.31,13.87,52.07,16.39,64.67.74,3.7,1.5,6.83,2.12,9.35,1.21,5,1.94,8,1.14,9.49-1.21,2.33-2.88,3-5.18,3.44A6.46,6.46,0,0,1,294.75,955Z" transform="translate(0 0)"/><path class="cls-2" d="M170.32,586.27h0c.6,0,2.59.09,2.91,1.31.11.38.39,1.62.83,3.49,8.86,38,17.26,68,25,89,13.45,36.76,41,94.45,52.81,117.17,12.2,23.53,22.62,51.49,29.21,70.81,6.24,18.28,13.85,52,16.37,64.61.74,3.71,1.51,6.85,2.12,9.37,1.15,4.68,1.9,7.78,1.19,9.14-1.13,2.16-2.62,2.8-4.83,3.18a6.25,6.25,0,0,1-1.15.11c-1.17,0-1.95-.36-2.23-2.2v0c-.09-.4-8.24-39.84-11.09-54.09-2.75-13.78-9.49-38.79-15.83-51.24-2.71-5.34-8.41-16.95-14.45-29.24-7.75-15.77-16.53-33.65-21-42.37-7.94-15.45-28.54-60.18-35.86-80.8-6.33-17.83-25.15-74.79-28.55-101.77v-.08c-.3-1.44-.45-4.11.44-5.12a6.5,6.5,0,0,1,4.18-1.27m0-1c-2,0-4.13.68-4.94,1.61-1.55,1.77-.66,6-.66,6,3.32,26.38,21.28,81.36,28.6,102s27.93,65.4,35.91,80.92,29.27,59.42,35.47,71.61,12.86,36.58,15.74,51,11.09,54.09,11.09,54.09c.35,2.31,1.56,3,3.22,3a7.8,7.8,0,0,0,1.32-.12c2.33-.4,4.2-1.13,5.54-3.71s-1-8.08-3.21-19.17-10-45.89-16.41-64.73-16.84-47-29.26-70.95S213.27,716.13,200,679.77,175,590.43,174.2,587.32c-.4-1.48-2.07-2.05-3.88-2.05Z" transform="translate(0 0)"/><path class="cls-1" d="M251.27,511.42a38.94,38.94,0,0,1-7.86-1.07c-8.29-1.79-16.61-11.7-22.25-26.51-3.69-9.71-16.25-43.28-22.7-67.79-.06-.19-5.13-19.19-7.76-29.7a82.75,82.75,0,0,1-2.64-17.4c1.18-1,8.58-7.22,16.95-7.22a16.13,16.13,0,0,1,2.42.18c7.84,1.17,27.15,6,37.1,25.67,9.7,19.18,9.44,30.84,8.26,42.07-1.43,13.62-4,20-6.6,24.87a106.79,106.79,0,0,0-7.34,15.25l-.14.39c-2.71,7.64-4,12.55-2,13.42a1.93,1.93,0,0,0,.79.18h0c1.39,0,2.13-1.61,3.05-3.66.39-.84.82-1.8,1.34-2.72,2.18-3.86,8.7-9.61,14.95-12,.12-.06,4.53-2.69,18.35-5.29,3.39-.63,6.24-1.18,8.72-1.65,7.75-1.47,12-2.28,17.7-3.17a43.24,43.24,0,0,1,6.57-.54,28.88,28.88,0,0,1,12.43,2.67c5.29,2.41,5.21,3.93,5.05,7l0,.37c-.08,1.61-1,7-9.73,8.51-1.82.33-3.79.79-5.88,1.27-5,1.16-10.62,2.48-16.45,2.48a35.16,35.16,0,0,1-5.43-.42l-.71-.12a84.34,84.34,0,0,0-12.7-1.49,23.57,23.57,0,0,0-8.29,1.46c-6.94,2.49-12.55,5.85-15,9-2,2.55-3,5.33-2.61,7.07a2.27,2.27,0,0,0,1.3,1.59,4.57,4.57,0,0,0,1.82.38,7.39,7.39,0,0,0,4.52-2,4.94,4.94,0,0,1,3-.91,4.47,4.47,0,0,1,4.25,2.73,11.32,11.32,0,0,1-3.25,13.85A13.45,13.45,0,0,1,251.27,511.42Z" transform="translate(0 0)"/><path class="cls-2" d="M205,362.23a15.21,15.21,0,0,1,2.35.18c7.76,1.15,26.87,5.94,36.72,25.4,8.78,17.34,9.66,28.06,8.21,41.78-1.42,13.55-4,19.87-6.51,24.65a105.09,105.09,0,0,0-7.4,15.36l-.14.4c-2.94,8.3-4.1,13-1.77,14a2.45,2.45,0,0,0,1,.22c1.71,0,2.55-1.83,3.51-3.95.38-.84.81-1.79,1.32-2.68,2.13-3.78,8.54-9.43,14.69-11.81l.08,0,.08-.05s4.42-2.61,18.1-5.19c3.39-.63,6.24-1.17,8.72-1.65,8-1.52,12-2.28,17.69-3.16a42.24,42.24,0,0,1,6.49-.54,28.43,28.43,0,0,1,12.23,2.62c5,2.28,4.91,3.51,4.75,6.48l0,.38c-.07,1.51-1,6.56-9.32,8-1.83.33-3.81.79-5.9,1.28-4.95,1.15-10.56,2.46-16.34,2.46a33,33,0,0,1-5.35-.42l-.71-.11a85.15,85.15,0,0,0-12.78-1.5,24.07,24.07,0,0,0-8.46,1.49c-7,2.52-12.72,5.94-15.25,9.14-2.1,2.67-3.16,5.61-2.69,7.51a2.73,2.73,0,0,0,1.58,1.92,5,5,0,0,0,2,.42,7.9,7.9,0,0,0,4.85-2.07,4.38,4.38,0,0,1,2.63-.79,3.93,3.93,0,0,1,3.79,2.44,10.76,10.76,0,0,1-3.11,13.25,12.89,12.89,0,0,1-8.8,3.18,38.67,38.67,0,0,1-7.75-1.06c-8.13-1.75-16.31-11.55-21.89-26.2-3.69-9.7-16.24-43.26-22.69-67.74-.05-.19-5.13-19.18-7.76-29.69a85.51,85.51,0,0,1-2.62-17.05c1.58-1.35,8.6-6.95,16.45-6.95m0-1c-9.4,0-17.46,7.5-17.46,7.5a81,81,0,0,0,2.66,17.74c2.66,10.64,7.76,29.71,7.76,29.71,5.67,21.52,16.19,50.65,22.73,67.83s15.4,25.28,22.61,26.83a38.45,38.45,0,0,0,8,1.08,13.92,13.92,0,0,0,9.44-3.41,11.76,11.76,0,0,0,3.38-14.44,5,5,0,0,0-4.7-3,5.36,5.36,0,0,0-3.28,1,6.88,6.88,0,0,1-4.2,1.83,3.93,3.93,0,0,1-1.62-.34c-2.08-.91-1-4.73,1.5-7.89s8.31-6.49,14.8-8.82a23,23,0,0,1,8.12-1.43c3.55,0,7.55.67,13.33,1.6a34.36,34.36,0,0,0,5.51.43c8.35,0,16.28-2.66,22.42-3.76,7.48-1.33,10-5.65,10.14-9s.5-5.16-5.32-7.82a29.63,29.63,0,0,0-12.65-2.71,42.63,42.63,0,0,0-6.64.55c-7.48,1.16-12.3,2.16-26.43,4.82s-18.44,5.32-18.44,5.32c-6.44,2.49-13,8.32-15.21,12.24-1.68,3-2.39,6.13-3.95,6.13a1.37,1.37,0,0,1-.59-.14c-2-.88,1.11-9.42,2.44-13.18a105.29,105.29,0,0,1,7.32-15.19c3-5.69,5.32-12.41,6.65-25.05s1-23.94-8.32-42.35-27-24.38-37.46-25.93a16.28,16.28,0,0,0-2.5-.19Z" transform="translate(0 0)"/><path class="cls-1" d="M403.42,949.4c-1,0-1.25-.33-1.36-.59-.81-1.81,0-6.88,2.14-17.54.65-3.3,1.58-7.77,2.61-12.71,2.21-10.63,5-23.87,6.26-31.42C414.94,876.2,421.7,847,426,835.69l.59-1.54c4.71-12.31,13.49-35.22,15.51-50.34,2.06-15.39,3.87-39.2,4.22-48.82.33-9.43,3-40.87,4.32-51.39.76-6.32,3.18-17.46,5.51-28.24,1.72-7.92,3.35-15.41,4.24-20.62,2.09-12.22,5.3-42.65,5.77-49.71,0-.08.78-9,2-11.93a32.23,32.23,0,0,1,4.13-7.52c1.07-1.32,2.07-2,2.8-2a.81.81,0,0,1,.38.08c.23.1,1.28,1-.61,8.28-.9,3.44-1.45,9.05-2,15-.44,4.44-.9,9-1.52,12.88-1.33,8.32-3.29,21.38-5.21,34.26-.4,2.66-.95,6.17-1.56,10.1-1.76,11.2-4.16,26.53-5,35-.62,6.39-1.57,13.75-2.57,21.55-.81,6.26-1.64,12.74-2.42,19.56-1.71,15-2.4,26.28-2.88,36.28a104.34,104.34,0,0,1-2.55,15.77c-.92,4.34-1.88,8.82-2.33,13-.33,3.08-.56,5.9-.79,8.63a141.06,141.06,0,0,1-2,16.27c-1,5.21-3.59,11.25-6.07,17.08-1.54,3.64-3.14,7.4-4.34,10.9l-.23.68a241,241,0,0,0-9.54,34.3c-1.5,7.79-2.82,13.24-3.89,17.61-1,4.09-1.78,7.32-2.32,10.79-1.23,8-2.67,18.25-2.89,26.44-.07,3-.06,5.19-.05,7,0,3.34,0,5.18-.59,7.29l-.09.29c-.93,3.13-1.36,4.56-4.1,5.25-.63.15-1.32.36-2,.57A18.63,18.63,0,0,1,403.42,949.4Z" transform="translate(0 0)"/><path class="cls-2" d="M475.06,564h.14s.89,1-.86,7.73c-.9,3.48-1.46,9.1-2,15.06-.44,4.43-.9,9-1.51,12.85-1.51,9.38-3.92,25.57-5.21,34.26-.4,2.66-.94,6.11-1.56,10.1-1.76,11.2-4.16,26.54-5,35.07-.62,6.38-1.56,13.73-2.56,21.51-.81,6.28-1.65,12.76-2.43,19.6-1.71,15-2.4,26.3-2.88,36.31a102.35,102.35,0,0,1-2.54,15.68c-.92,4.35-1.88,8.85-2.34,13.08-.33,3.08-.56,5.91-.78,8.64a144.75,144.75,0,0,1-2,16.22c-1,5.15-3.57,11.16-6,17-1.55,3.64-3.15,7.41-4.35,10.93l-.24.69a240.8,240.8,0,0,0-9.55,34.36c-1.5,7.77-2.82,13.21-3.89,17.59-1,4.09-1.79,7.33-2.32,10.82-1.24,8-2.68,18.3-2.9,26.51-.07,3-.06,5.2-.05,7,0,3.4,0,5.11-.57,7.15l-.09.29c-.93,3.12-1.28,4.29-3.74,4.9-.65.16-1.32.36-2,.58a18.33,18.33,0,0,1-4.32.94c-.52,0-.82-.09-.91-.29-.81-1.84.39-8.31,2.18-17.24.65-3.29,1.6-7.85,2.6-12.68,2.22-10.65,5-23.9,6.27-31.47,1.87-10.92,8.62-40.11,12.92-51.35l.58-1.53c4.72-12.33,13.51-35.28,15.55-50.46,2.06-15.41,3.87-39.24,4.22-48.87.33-9.42,3-40.84,4.31-51.35.77-6.29,3.18-17.42,5.51-28.18,1.72-7.94,3.35-15.44,4.24-20.66,2.09-12.22,5.31-42.69,5.77-49.74,0-.09.78-9,1.93-11.79a31.77,31.77,0,0,1,4.06-7.4c1.4-1.72,2.2-1.85,2.41-1.85m0-1c-.91,0-2,.78-3.18,2.22a32.31,32.31,0,0,0-4.22,7.65c-1.22,3-2,12.09-2,12.09-.45,6.76-3.66,37.35-5.77,49.65s-8.42,37.91-9.75,48.89-4,42.12-4.32,51.43-2.11,33-4.22,48.77-11.75,40.46-16.07,51.77-11.08,40.57-13,51.54-6.76,33.59-8.87,44.12-3,15.85-2.1,17.85c.29.65.95.88,1.82.88,1.81,0,4.51-1,6.6-1.55,3.11-.77,3.55-2.55,4.55-5.87s.44-5.88.66-14.41,1.78-19.18,2.88-26.38,3.33-13.42,6.21-28.38a240,240,0,0,1,9.76-34.92c3.1-9.09,8.75-19.51,10.42-28s1.77-15.63,2.77-24.94,4.43-19.73,4.87-28.82,1.11-20.73,2.89-36.25,3.88-29.71,5-41.12,5-34.7,6.54-45.12,3.76-25.27,5.2-34.25,2-21.84,3.55-27.82,1.33-8.43.33-8.87a1.43,1.43,0,0,0-.58-.12Z" transform="translate(0 0)"/></svg>