<svg id="Vector" xmlns="http://www.w3.org/2000/svg" viewBox="0 0 638.96 949.11"><defs><style>.cls-1{fill:#fff;}</style></defs><path class="cls-1" d="M128.23,590.15c-3.59,1.56-7.51,3.43-11.53,5.39s-8.19,4-12.26,5.73l.13-.06c-18.89,8.55-38.46,15-58,21.4L39.28,625l-3.66,1.18-1.83.59c-.58.2-1.17.43-1.76.66a64.69,64.69,0,0,0-13.26,7.48A64.17,64.17,0,0,0,0,656.24a54.49,54.49,0,0,1,8.28-10.76,75.41,75.41,0,0,1,13.49-10.73c1.58-1,3.17-2,4.86-2.9a33.56,33.56,0,0,1,5.29-2.24,50.42,50.42,0,0,1,11.2-2.23,44.08,44.08,0,0,1,5.75-.15,22.73,22.73,0,0,1,5.85.88,17.69,17.69,0,0,1,9.13,7.48,37.64,37.64,0,0,1,4.54,10.62,78.42,78.42,0,0,1,2.14,11.2,103,103,0,0,1,.65,13.71c.4-1.7.76-3.4,1-5.1a82.83,82.83,0,0,0,.68-11.9c0-4-.17-7.94-.44-11.88-.12-2-.32-3.89-.46-5.94a18.72,18.72,0,0,1,.58-6.3,17.3,17.3,0,0,1,2.83-5.66,35.07,35.07,0,0,1,4.15-4.51c1.48-1.37,2.94-2.67,4.5-4A56.75,56.75,0,0,1,89,612.34c3.36-2.17,6.83-4.14,10.34-6,7-3.78,14.26-7.28,21.66-10.67a158.72,158.72,0,0,0,16.56-8.89L143,583.4C138.13,585.63,133.32,587.94,128.23,590.15Z"/><path class="cls-1" d="M186.34,470h0c-2.56,2.32-5.55,4.6-8.68,7a106.29,106.29,0,0,0-9.32,7.88,129.28,129.28,0,0,0-11.84,14.23q-1.37,1.88-2.65,3.8a29.29,29.29,0,0,0-2.28,3.82c-1.11,2.5-.56,5.48.28,8.4.42,1.47.91,2.95,1.39,4.46s1,2.91,1.53,4.37a51.15,51.15,0,0,1,2.89,9.13,27.59,27.59,0,0,1,.14,9.72,33.86,33.86,0,0,1-3.14,9.14c-1.29,2.68-2.75,5.21-3.94,7.75a17.21,17.21,0,0,0-1.34,3.79,8.4,8.4,0,0,0-.15,1.85c0,.42,0,.25,0,.29h0l.07-.06.37-.32a10.76,10.76,0,0,1,1.93-1.46c.75-.39,1.43-.63,2-.91a5.21,5.21,0,0,0,1.47-.9,1.74,1.74,0,0,0,.57-1.14,14,14,0,0,0,.07-2,15.7,15.7,0,0,1,.42-4.55,10.7,10.7,0,0,1,.88-2.22,21.92,21.92,0,0,1,1.18-1.92,23.46,23.46,0,0,1,2.85-3.44,18.45,18.45,0,0,1,3.56-2.81,10.84,10.84,0,0,1,1-.55l1-.45c.62-.29,1.24-.6,1.84-.94a33.22,33.22,0,0,0,6.69-5c.51-.49,1-1,1.48-1.51a17.66,17.66,0,0,1,1.68-1.57,22.91,22.91,0,0,1,3.78-2.5,32.84,32.84,0,0,1,6.43-2.66,14,14,0,0,0,1.54-.49,10.38,10.38,0,0,0,1.42-.7,14.62,14.62,0,0,0,2.59-1.9,7.73,7.73,0,0,0,3.32-6.53c0-.52,0-1-.06-1.54a7.85,7.85,0,0,0-.7-2.8,3.71,3.71,0,0,0-1.43-1.6,4.69,4.69,0,0,0-2.16-.6,15.54,15.54,0,0,0-4.87.31,12.23,12.23,0,0,0-4.32,1.88,24.86,24.86,0,0,0-3.65,3.35,28.65,28.65,0,0,0-4.67,7.57c-.64,1.43-1.19,3-1.78,4.49s-1.15,3-1.9,4.48v0l0,.11,0-.08a5.94,5.94,0,0,1-2.08,2.58,3.58,3.58,0,0,1-1.86.47h-.45l-.51-.1a4,4,0,0,1-.93-.38,6.82,6.82,0,0,1-2.22-2.45,14.93,14.93,0,0,1-1.21-2.76,17.7,17.7,0,0,1-.67-2.9,12.33,12.33,0,0,1,0-3,34.12,34.12,0,0,1,1-5.65,65.7,65.7,0,0,1,3.92-10.58c1.58-3.36,3.19-6.71,5-10a51,51,0,0,1,6.51-9.15,86,86,0,0,1,8.08-7.68,25.64,25.64,0,0,0,3.75-4,9.05,9.05,0,0,0,1.31-2.35,11.73,11.73,0,0,0,.53-2.66c.09-.92.19-1.85.22-2.76a5.6,5.6,0,0,0-.07-1.36,1.4,1.4,0,0,0-.7-1,3.69,3.69,0,0,0-2.66,0,12.66,12.66,0,0,0-2.52,1.14l.31-.17-.31.17Z"/><path class="cls-1" d="M310.58,38.92a90.15,90.15,0,0,0-11,18.47c-.71,1.64-1.38,3.3-1.95,5s-1,3.44-1.66,5.15a31.41,31.41,0,0,1-2.25,5c-.12.2-.23.4-.37.59a6.5,6.5,0,0,1-.47.66,5.49,5.49,0,0,1-1.14,1.12,2.18,2.18,0,0,1-2.84-.34,5.14,5.14,0,0,1-1.14-2.93,17.43,17.43,0,0,1-.09-2.79c.09-1.84.24-3.59.38-5.41a63.1,63.1,0,0,1,1.82-10.74c1.83-7.07,4.91-13.66,7.9-20.21s6.34-13,10.05-19.2c1-1.57,1.85-3,2.67-4.61s1.59-3.17,2.33-4.8C313.44,2.59,314,1.3,314.55,0a157.06,157.06,0,0,1-14.47,12.82c-3.39,2.66-6.87,5.21-10.39,7.66s-7,4.89-10.29,7.5a131.87,131.87,0,0,0-18,17.73A191,191,0,0,0,246,65.9a137,137,0,0,0-12,22.2,102.28,102.28,0,0,0-3.72,12c-.29,1-.59,2.1-1,3.19a15.72,15.72,0,0,1-1.54,3.4,6,6,0,0,1-1.89,1.92,4.51,4.51,0,0,1-2.76.67,3.86,3.86,0,0,1-2.54-1.17,5.42,5.42,0,0,1-.86-1.18l-.33-.67c-.05-.11-.08-.22-.12-.32l-.09-.26a16.72,16.72,0,0,1-.63-3.67c-.08-1.16-.1-2.29-.08-3.4,0-2.23.18-4.4.35-6.56l.56-6.42c.09-1.06.18-2.12.3-3.24s.25-2.18.4-3.27c.62-4.31,1.39-8.55,2.22-12.79l.67-3.3a4.37,4.37,0,0,0-.3.36l-.45.58q-3.43,4.44-6.64,9a131.9,131.9,0,0,0-11.37,19.06c-1.61,3.34-3,6.73-4.36,10.23s-2.62,7-3.78,10.54-2.22,7.1-3.13,10.72l-.68,2.72c-.21.84-.39,1.76-.58,2.7a36.61,36.61,0,0,1-1.55,5.8l.06-.14c.06-.16.12-.32.17-.47l-.11.31-.06.16a10.28,10.28,0,0,1-1.47,2.78,6.11,6.11,0,0,1-.91.94,4.55,4.55,0,0,1-1.14.67,4.22,4.22,0,0,1-1.25.34l-.65.07c-.22,0-.43-.05-.65-.06a4,4,0,0,1-2.18-1.36,8.81,8.81,0,0,1-.76-1.12,10,10,0,0,1-.43-.93,18.1,18.1,0,0,1-.9-3.3,63.59,63.59,0,0,1-.69-12.57c.06-2.07.19-4.15.36-6.21.08-.89.17-1.75.25-2.61q-.91,2.23-2,4.38c-1,2-2.08,3.85-3.14,5.75-2.11,3.75-4.28,7.43-6.58,10.92-1.14,1.75-2.31,3.45-3.46,5.09a54,54,0,0,0-3.1,4.86,30.92,30.92,0,0,0-3.84,12.34,37,37,0,0,0-.05,6.49c.17,2.14.48,4.42.79,6.61s.7,4.38,1.19,6.5a24.19,24.19,0,0,0,2,5.87,6,6,0,0,0,3.82,3.31,2.28,2.28,0,0,0,1.89-.22,4.8,4.8,0,0,0,1.59-1.83,17.15,17.15,0,0,0,1.75-5.81,34.5,34.5,0,0,0,.29-6.45c-.07-2.19-.28-4.42-.46-6.7-.09-1.14-.18-2.3-.19-3.5a16.12,16.12,0,0,1,.3-3.78,8.72,8.72,0,0,1,.31-1,9.22,9.22,0,0,1,.47-1,9.74,9.74,0,0,1,1.17-1.67,5.11,5.11,0,0,1,2.08-1.5,3.58,3.58,0,0,1,2.71.08,5.26,5.26,0,0,1,2,1.57,10.66,10.66,0,0,1,1.13,1.7c.55,1,1.09,2,1.68,2.92a40.84,40.84,0,0,0,8.8,10.08,50,50,0,0,0,6.82,4.66c2.49,1.45,5,3,7.44,4.31s5,2.61,7.35,2.88a6.83,6.83,0,0,0,3.33-.41,10.26,10.26,0,0,0,3.06-2,21.1,21.1,0,0,0,4.62-6.54,30.46,30.46,0,0,0,1.55-3.88c.22-.66.4-1.34.59-2l.48-2.11a146.83,146.83,0,0,1,5.23-17.47c1-2.86,2.19-5.7,3.49-8.5.64-1.4,1.33-2.78,2.1-4.15.37-.69.77-1.36,1.2-2s.85-1.32,1.28-1.95a163.9,163.9,0,0,1,11.25-14.36c2-2.29,4.05-4.52,6.23-6.67,1.1-1.06,2.22-2.12,3.44-3.11a17.16,17.16,0,0,1,4.21-2.64,5.91,5.91,0,0,1,3.07-.4,5.14,5.14,0,0,1,2.8,1.59,5.06,5.06,0,0,1,1,1.38,4,4,0,0,1,.31,1.87,7.23,7.23,0,0,1-.91,2.74,41.39,41.39,0,0,1-2.55,3.88c-.89,1.23-1.71,2.36-2.49,3.56a166.31,166.31,0,0,0-10.72,20.12,68.68,68.68,0,0,0-6.21,21.37,34.22,34.22,0,0,0-.16,5.44c0,.91.14,1.76.25,2.69s.26,1.85.41,2.77a68.17,68.17,0,0,0,2.57,10.77A28.78,28.78,0,0,0,254,183a11.45,11.45,0,0,0,3.08,3.69,4.94,4.94,0,0,0,1.87.83l1.24.19,1.24.08a15.34,15.34,0,0,0,5-.77,42.85,42.85,0,0,0,9.64-4.83c3.12-2,6.19-4.14,9.22-6.32a82.36,82.36,0,0,0,15.92-15.11,61.94,61.94,0,0,0,10.68-18.88l3.72-10.59a69.45,69.45,0,0,0,3-10.47,24.49,24.49,0,0,1,.71-3c.15-.49.31-1,.51-1.48.09-.24.19-.49.3-.74l.16-.37.27-.54c.77-1.51,1.94-3,3.33-3.39a3.49,3.49,0,0,1,1.12-.15,4.33,4.33,0,0,1,1.09.25,4.84,4.84,0,0,1,1.84,1.41,6.21,6.21,0,0,1,1.23,2.25c.08.21.15.42.21.64l.13.6c.05.29.1.57.13.85a24.09,24.09,0,0,1,.15,3.12c0,1-.06,2-.11,2.93s-.15,2-.24,2.89c-.77,7.56-1.79,15-2.55,22.41-.2,1.86-.36,3.69-.52,5.57l-.54,5.65q-.6,5.63-1.22,11.26c-.42,3.74-.87,7.51-1.24,11.2a22.61,22.61,0,0,0,0,5.07,9.48,9.48,0,0,0,1.45,4.19,4.11,4.11,0,0,0,2.92,1.85l.47,0a6.31,6.31,0,0,0,.64,0h1.41l2.82,0c3.74-.06,7.49-.2,11.22-.46a122.81,122.81,0,0,0,22.07-3.36,57.82,57.82,0,0,0,10.35-3.67,61.49,61.49,0,0,0,9.5-5.6,82.78,82.78,0,0,0,16.15-15.49c6.07-7.8,11.91-16,16.31-24.74a61.43,61.43,0,0,0,2.9-6.69,41.27,41.27,0,0,0,1.85-6.94c.44-2.37.66-4.79.89-7.31.13-1.27.23-2.54.49-3.93a13.76,13.76,0,0,1,.57-2.15,7.16,7.16,0,0,1,1.38-2.39,12.29,12.29,0,0,1,1.25-1.12,4.44,4.44,0,0,1,1.5-.61,3.65,3.65,0,0,1,3,.79,7,7,0,0,1,1.82,2.51,15.93,15.93,0,0,1,.76,2,52.13,52.13,0,0,1,1.51,7.73,112.73,112.73,0,0,1,1.18,15.36,127.83,127.83,0,0,1-2.14,20.26c1.27-1.91,2.52-3.83,3.71-5.77A101.76,101.76,0,0,0,447,136.78a47.18,47.18,0,0,0,2.29-7.87c.55-2.75,1-5.51,1.38-8.31.73-5.58,1.1-11.23,1.27-16.89s.08-11.33-.19-17-.72-11.28-1.53-16.87c-.4-2.79-.86-5.58-1.39-8.35-.27-1.39-.55-2.77-.85-4.15l-.69-3s0-.14-.07-.07L446,55.34,439.55,61,413.73,83.52l-3.23,2.85c-.55.48-1.11,1-1.71,1.44l-1,.74-.84.54a8.53,8.53,0,0,1-.91.45,5.2,5.2,0,0,1-1.88.37,3.74,3.74,0,0,1-1.78-.54,4.84,4.84,0,0,1-2.09-3.15,10.32,10.32,0,0,1-.18-1c0-.24,0-.45,0-.68,0-.46,0-.87,0-1.3a20.38,20.38,0,0,1,.28-2.41,35.07,35.07,0,0,1,1.14-4.46l.36-1.06c.12-.36.25-.72.33-1,.17-.61.39-1.19.51-1.85a52.82,52.82,0,0,0,1.1-8.11c.39-5.57.39-11.23.27-16.88s-.39-11.36-.71-17-.88-11.28-1.52-16.9c-.33-2.81-.69-5.61-1.1-8.4l-.53-3.39L400.1,1,400,.63l0-.18,0-.09v0l0,0-.11.12-.9,1-2.66,2.93q-2.82,3-5.75,6a158.68,158.68,0,0,1-12.27,11.08c-2.15,1.72-4.33,3.4-6.62,4.94s-4.53,3-6.81,4.43C360.3,33.68,355.75,36.49,351,39c-2.37,1.25-4.78,2.33-7,3.46s-4.53,2.42-7.06,3.44a13.79,13.79,0,0,1-4.18,1,7.06,7.06,0,0,1-1.21,0,6.15,6.15,0,0,1-1.25-.3,5,5,0,0,1-1.17-.61,4.48,4.48,0,0,1-1-.9,3.87,3.87,0,0,1-.94-2.7A5.91,5.91,0,0,1,327.8,40a21.72,21.72,0,0,1,2.12-3.36c1.49-2,2.95-3.89,4.21-5.89s2.55-4.06,3.75-6.08a91.15,91.15,0,0,0,6.19-12.28l-1.23.58a91.63,91.63,0,0,0-17.2,10.57A89.35,89.35,0,0,0,310.58,38.92Z"/><path class="cls-1" d="M344.06,12.48l0-.08h0Z"/><polygon class="cls-1" points="224.93 535.43 224.93 535.43 224.93 535.43 224.93 535.44 224.93 535.43"/><path class="cls-1" d="M224.93,535.51a134.94,134.94,0,0,0,3.33,17.15c1.44,5.66,3.27,11.15,5.1,16.72v0c.94,2.33,1.71,5,2.7,7,.64,1.23,1.07,2.4,1.71,3.54a10.79,10.79,0,0,0,2.44,3.1c1.28,1,2.54,2.18,4,3.19a20.51,20.51,0,0,0,4.53,2.56l.37.13.22.08.25.08c.14,0,.35.1.41.06l-.18-.45-.09-.19-.24-.66-1.07-2.81c-.74-1.86-1.48-3.72-2.2-5.55l-2.24-5.57A59.24,59.24,0,0,1,242,568c-1.47-5-2.81-9.56-4.21-14.34-.69-2.39-1.33-4.8-1.9-7.21l-.21-.91-.1-.45-.12-.32-.1-.32-.19-.33a3.66,3.66,0,0,0-.41-.67,17.33,17.33,0,0,0-2.34-2.55c-2.51-2-5.61-3.13-7.47-5.41Z"/><path class="cls-1" d="M433.57,443.19c-.58,1.09-1.14,2.19-1.69,3.3l-.8,1.65-.64,1.41,1.08.06,1.2.06,2.61.09,5.21.13,5.22.07c1.73,0,3.49,0,5.25.16a39.93,39.93,0,0,1,19.92,6.78,28.91,28.91,0,0,1,7.76,7.45,16.78,16.78,0,0,1,3.11,10.53,17.85,17.85,0,0,1-1.23,5.41,35,35,0,0,1-2.27,4.89,46,46,0,0,1-6.29,8.67l.09-.09a48.7,48.7,0,0,1-3.82,3.93,20.68,20.68,0,0,1-2.2,1.82c-.81.55-1.68,1-2.37,1.38a5.1,5.1,0,0,0-.45.29.69.69,0,0,0-.11.13c0,.12,0,.18.1.4a1.85,1.85,0,0,0,.3.36l.16.15.22.15a8,8,0,0,0,1,.59,40.9,40.9,0,0,0,4.48,1.78A60.69,60.69,0,0,1,480,509.33a48.35,48.35,0,0,1,9.12,7.42,55.71,55.71,0,0,1,9.14,11.93,62.48,62.48,0,0,1,3.24,7,19.77,19.77,0,0,0,3.58,6.22,9,9,0,0,0,1.72,1.39l.46.26.51.22a7.4,7.4,0,0,0,1.06.38,24.62,24.62,0,0,0,4.56.84c1.56.16,3.13.23,4.71.25.76,0,1.61,0,2.3,0l.28,0h.07l0-.08,0-.13,0-.13-.14-.6c-.07-.41-.14-.81-.2-1.22-.11-.82-.2-1.64-.23-2.46a31.93,31.93,0,0,1,.19-4.9c.18-1.61.45-3.2.76-4.76a14.59,14.59,0,0,0,.34-2.2,10.1,10.1,0,0,0-.07-2.13,13.35,13.35,0,0,0-4-7.56c-1-1-2.29-2-3.51-3a46.23,46.23,0,0,1-3.63-3.26,47.89,47.89,0,0,1-6.11-7.66,30.78,30.78,0,0,1-4.42-9,13.22,13.22,0,0,1-.33-5.61,12,12,0,0,1,2.32-5.16,39.19,39.19,0,0,1,3.65-3.89,11.52,11.52,0,0,0,2.77-3.84c1.1-2.79-.3-6.11-2-8.88a26.9,26.9,0,0,0-6.9-7.14c-5.47-4-11.72-7-17.89-10.06-3.11-1.53-6.2-2.91-9.38-4.2s-6.4-2.44-9.65-3.54c-8.77-2.77-17.86-4.37-25-7h0l-.08.12Q435.28,440,433.57,443.19Z"/><path class="cls-1" d="M473.2,262.22a26,26,0,0,1,1.07-2.86,56.64,56.64,0,0,1,5.78-9.81c1.06-1.52,2.15-3,3.25-4.46s2.24-3,3.48-4.35a111.11,111.11,0,0,1,16-14.44q2.08-1.58,4.17-3.07l2.1-1.46.53-.36.6-.39c.4-.24.79-.47,1.18-.68l2.21-1.16a8.54,8.54,0,0,0,1.6-1,.7.7,0,0,0,.23-.56.79.79,0,0,0-.15-.65.55.55,0,0,0-.22-.18,1,1,0,0,0-.37-.11,6.63,6.63,0,0,0-1.72,0,19.33,19.33,0,0,0-4.25,1.07,58.07,58.07,0,0,0-8.46,4.09c-2.77,1.59-5.56,3.24-8.13,5a62.16,62.16,0,0,0-7.31,5.84,123.54,123.54,0,0,0-12.74,14.24c-2,2.56-4.14,5.1-6.34,7.61L464,256.47c-.92,1-1.85,2-2.81,2.83-.47.46-.94.79-1.41,1.19l-1.33.82c-.44.27-.86.52-1.33.78a.8.8,0,0,1-.54.15,3.59,3.59,0,0,0-.53,0c-.17-2-.3-4-.54-5.9-.11-.95-.23-1.95-.37-2.86l-.26-1.7c-.35-2.27-.78-4.55-1.24-6.83-1.92-9.31-4.33-18.75-7.23-28.19-1.44-4.74-3.08-9.46-4.38-14.53a51.11,51.11,0,0,1-1.36-7.85c-.08-.67-.1-1.33-.14-2l-.05-1V191c0-.19,0-.45,0-.57l0-.4c0-.1-.07-.08-.12-.08l-.19,0-.36.15a3.05,3.05,0,0,0-.38.21c-.48.33-1,.64-1.47,1-2,1.41-3.91,3-5.79,4.61l-2.83,2.49c-1.07.83-2.1,1.77-3.2,2.51s-2.19,1.52-3.32,2.18l-3.39,2A209.64,209.64,0,0,1,391.41,217q-13.16,4.59-26.52,8.11c-2.23.59-4.47,1.12-6.72,1.65l-3.47.67c-1.16.21-2.31.34-3.47.52-4.61.58-9.22.95-13.81,1.08A268.66,268.66,0,0,1,310,228.5q-13.62-.88-27.09-2.78c-4.49-.63-9-1.37-13.42-2.17s-8.85-1.62-13.28-2.5-8.87-1.84-13.3-2.92-8.82-2.38-13.15-3.87a187.7,187.7,0,0,1-25.11-10.88l-3-1.56-3-1.62c-2-1.08-4-2.17-6-3.31s-4-2.22-5.9-3.39l-1.46-.87-.44-.26h0l-.19,1.06-1,5.53c-.72,3.68-1.49,7.36-2.36,11.05a82.43,82.43,0,0,1-3.44,11.11c-1.41,3.61-3.05,7.1-4.76,10.49l-2.6,5c-.43.83-.91,1.69-1.29,2.48a24,24,0,0,0-1.05,2.31,33.65,33.65,0,0,0-2.32,10.09,35.26,35.26,0,0,0-.06,5.24,30.16,30.16,0,0,0,.72,5.14,20.75,20.75,0,0,0,1.61,4.71c.86,1.69,1.69,3.34,2.59,4.9,1.65,2.83,3.52,5.49,5.81,7a8,8,0,0,0,3.62,1.38,4,4,0,0,0,1,.05,8.23,8.23,0,0,0,1.07,0c.79-.07,1.58-.19,2.36-.31a57.11,57.11,0,0,0,9.53-2.93c3.27-1.22,6.67-2.4,10.12-3.36a101.25,101.25,0,0,1,21.14-3.57,65.1,65.1,0,0,1,10.89.24,41.9,41.9,0,0,1,5.48,1c.92.23,1.83.51,2.73.8s1.86.69,2.62,1a56.06,56.06,0,0,1,9.72,5,40.19,40.19,0,0,1,8.28,7.48c1.22,1.39,2.27,2.89,3.35,4.37s2,3,2.88,4.61c.44.79.9,1.57,1.33,2.36l1.22,2.39c.85,1.59,1.54,3.23,2.3,4.84a148.45,148.45,0,0,1,7.27,20.05c.49,1.71.89,3.46,1.32,5.2s.78,3.5,1,5.28a82.12,82.12,0,0,1,1.15,10.76,88.23,88.23,0,0,1-.26,10.8c-.14,1.76-.32,3.52-.42,5.14l-.1,1.37c0,.48-.08,1-.15,1.43-.11.94-.28,1.86-.45,2.78a69.44,69.44,0,0,1-3.1,10.48c-1.25,3.36-2.66,6.61-4.11,9.82l-1.09,2.39-.55,1.2-.47,1.09a24,24,0,0,0-1.41,4.43,16.15,16.15,0,0,0,.25,8.67,7.7,7.7,0,0,0,1.94,3.12,14.83,14.83,0,0,0,3.63,2.25,24.59,24.59,0,0,0,9,2.09,25.4,25.4,0,0,0,4.69-.19l1.16-.16,1.16-.23,1.22-.26,1.28-.3c3.41-.78,6.79-1.5,10-2.38a29.28,29.28,0,0,0,8.69-3.66c.29-.22.59-.43.87-.65l.82-.72a17.93,17.93,0,0,0,1.53-1.64,10,10,0,0,0,1.95-3.59c.75-2.55.33-5.64-.66-8.69a45.27,45.27,0,0,0-1.76-4.58l-2.13-4.72c-2.85-6.28-5.87-12.5-8.8-18.79-2-4.18-4-8.34-6-12.59a95.2,95.2,0,0,1-5.09-13.19,35.75,35.75,0,0,1-1.4-14.37c.07-.63.16-1.2.26-1.74l.28-1.68c.18-1.13.41-2.28.67-3.43a34.92,34.92,0,0,1,2.25-6.72,38.92,38.92,0,0,1,7.93-11.24c.4-.4.77-.82,1.17-1.2l1.24-1.1c.83-.73,1.62-1.5,2.48-2.16,1.72-1.32,3.39-2.69,5.17-3.83a115.36,115.36,0,0,1,21.3-11.26l-2.21-.8c-7-2.42-14.47-4-21.91-3.5a44.56,44.56,0,0,0-6.09.82c-1,.24-2,.44-3,.74l-1.48.42-1.55.51c-1.09.36-2.13.76-3.21,1.14a13.44,13.44,0,0,1-3.07.74,5.16,5.16,0,0,1-1.52,0,2.22,2.22,0,0,1-1.34-.75,2.68,2.68,0,0,1-.54-1.49,2.29,2.29,0,0,1,.5-1.42,9.93,9.93,0,0,1,2.24-2l.65-.46.72-.45c.47-.29,1-.59,1.49-.87l1.56-.85,1.49-.75,2.79-1.37c3.73-1.77,7.47-3.48,11.28-5.11a74.23,74.23,0,0,1,24.09-6.22,62.59,62.59,0,0,1,12.54.51,115,115,0,0,1,12.23,2.44,97.44,97.44,0,0,0,11.9,2.57,44.89,44.89,0,0,0,11.92-.12c2-.27,3.95-.65,5.91-1.11a58.38,58.38,0,0,1,6.28-1.09,52.79,52.79,0,0,1,12.75.22,60.72,60.72,0,0,1,12.37,3,46.47,46.47,0,0,1,5.92,2.57,17.7,17.7,0,0,1,3,1.88c.43.38.87.77,1.29,1.17s.79.84,1.17,1.28a20.58,20.58,0,0,1,3.39,6,31.11,31.11,0,0,1,1.6,6.44,78.06,78.06,0,0,1,.55,12.74,65.56,65.56,0,0,1-5.84,24.83c-.88,1.95-1.85,3.85-2.9,5.72-.51.93-1.09,1.85-1.61,2.75s-1,1.65-1.42,2.53a50.44,50.44,0,0,0-4.06,11,57.81,57.81,0,0,0-1.71,11.64,25,25,0,0,0,0,2.76,18.78,18.78,0,0,0,.28,2.64,2.16,2.16,0,0,0,.23.61c.1.09.13.19.28.26a3.77,3.77,0,0,0,1.6.41l.58,0,.64,0a9.49,9.49,0,0,0,1.29-.11,10.68,10.68,0,0,0,1.28-.21,8.37,8.37,0,0,0,1.24-.33A14.78,14.78,0,0,0,438.1,356a35.86,35.86,0,0,0,7.47-8.59A206.43,206.43,0,0,0,457.39,326q5.5-11,10.64-22.31c.85-1.87,1.69-3.75,2.49-5.62a49.89,49.89,0,0,0,2.09-5.55,44,44,0,0,0,2-11.5l0,.44a19.57,19.57,0,0,0-.38-4.68l-.13-.52-.19-.69-.34-1.39c-.23-.93-.41-1.87-.56-2.83a26.61,26.61,0,0,1-.33-6A15.25,15.25,0,0,1,473.2,262.22Z"/><path class="cls-1" d="M339.94,277.16h0l-.05,0Z"/><path class="cls-1" d="M452.94,484.94c-2.51.34-5,.45-7.51.63l-7.51.5-3.76.23-1.88.12a2.43,2.43,0,0,0-1.24.39,3.89,3.89,0,0,0-1.11,2.61,18.16,18.16,0,0,0,0,3.54c.1,1.21.25,2.44.42,3.66a16.12,16.12,0,0,0,.87,3.38,12.07,12.07,0,0,0,1.76,2.94,20,20,0,0,0,2.54,2.5l-.05-.05a88.23,88.23,0,0,0,10.72,6.77c4.29,2.21,7.77,5.09,11.89,7.71,5,3.18,9.51,7.85,14.2,11.67,1.53,1.29,3,2.6,4.46,4a22.68,22.68,0,0,1,3.86,4.7c.75,1.36,2.37,1.73,4.2,1.69l1.42,0a7.59,7.59,0,0,0,1.28-.09,1.36,1.36,0,0,0,.73-.3c.1-.09.12-.19.13-.47a6.12,6.12,0,0,0-.75-2.22,14.48,14.48,0,0,0-1.46-2.23,11,11,0,0,0-1.81-1.86L482,533c-3.11-2.35-6.2-4.74-9.33-7.17-3.36-2.59-6.79-5-10.32-7.39s-7.1-4.72-10.47-7.44a32,32,0,0,1-4.75-4.58,7.91,7.91,0,0,1-1.72-3.31,5.48,5.48,0,0,1,.75-3.88,16.57,16.57,0,0,1,5-4.64c1.78-1.22,3.72-2.22,5.35-3.35a32.44,32.44,0,0,0,5.65-5.83c1.64-2.07,3.18-4.07,4.83-5.78l-.21.14a34.6,34.6,0,0,1-6.41,3.42A30.18,30.18,0,0,1,452.94,484.94Z"/><polygon class="cls-1" points="466.95 479.63 466.95 479.63 466.96 479.62 466.95 479.62 466.95 479.63"/><path class="cls-1" d="M539.18,559.41a96.37,96.37,0,0,0,13.38.05l6.7-.42a63.51,63.51,0,0,1,6.76,0,69.46,69.46,0,0,1,13.37,2.18,17.38,17.38,0,0,1,6.46,2.7,10.88,10.88,0,0,1,4,6,22,22,0,0,1,.55,7,30.39,30.39,0,0,1-1.38,6.8c-1.3,4.3-2.5,8.56-3.53,12.92q-.76,3.26-1.47,6.54c-.2,1.09-.4,2.18-.61,3.27l-.48,3.3,0-.13a101.62,101.62,0,0,0,.06,22.62c.06.47.12.92.19,1.38a1.5,1.5,0,0,1,0-.2c.39-2.6.78-5.15,1.21-8a83.11,83.11,0,0,1,4.14-15.79,131.9,131.9,0,0,1,6.61-15.22,82.18,82.18,0,0,1,4.26-7.47,39.5,39.5,0,0,1,5.38-6.74,20.2,20.2,0,0,1,7.31-4.77,17.57,17.57,0,0,1,8.74-.71,33.56,33.56,0,0,1,8.17,2.66,72.19,72.19,0,0,1,7.47,4c.82.51,1.63,1,2.44,1.56-.53-.57-1.06-1.15-1.6-1.71a63.4,63.4,0,0,0-18-13.11,116.92,116.92,0,0,0-21.07-7.84,115.48,115.48,0,0,0-22.05-4,128.89,128.89,0,0,0-22.39.35c-2.5.24-5,.56-7.51.76-1.24.13-2.5.16-3.74.24s-2.43.09-3.62.16c-2.39.12-4.71.28-6.94.49-1.11.11-2.2.23-3.26.39a11.7,11.7,0,0,0-3,.75l.47,0a49.79,49.79,0,0,1,6.22-.36C534.72,559,537,559.2,539.18,559.41Z"/><path class="cls-1" d="M525.78,559.36Z"/><path class="cls-1" d="M222.05,580.15c-.56-.45-1.13-.89-1.71-1.29a9.51,9.51,0,0,0-1.86-.93,14.22,14.22,0,0,0-4.11-.86,10.42,10.42,0,0,0-4.1.47,5,5,0,0,0-1.69,1,15.8,15.8,0,0,0-1.4,1.55,24.54,24.54,0,0,0-3.68,7.57,6.67,6.67,0,0,0-.44,1.92V590l.09.44a3.71,3.71,0,0,0,.29.85,7.64,7.64,0,0,0,2.84,2.67,50.39,50.39,0,0,0,7.76,3.46c5.36,2.09,10.83,3.86,16.32,5.62s11,3.45,16.54,5.1c11.05,3.34,22.24,6.18,33.53,8.87l-.17,0c9.7,2.12,20.2,4.46,28.9,5.67,10.85,1.54,21,3.09,32.06,2.57,6.69-.3,13.7-.78,20.77-1.43,3.53-.32,7.08-.68,10.61-1.07,1.76-.2,3.52-.39,5.26-.62s3.45-.48,5.13-.84a78.19,78.19,0,0,0,24.83-9.67,83.24,83.24,0,0,0,10.74-7.69c.85-.7,1.68-1.43,2.52-2.16s1.71-1.43,2.48-2.16a26.78,26.78,0,0,0,4.16-4.83,14.9,14.9,0,0,0,1.44-2.73,8.05,8.05,0,0,0,.43-1.4,11.17,11.17,0,0,0,.22-1.49,7.07,7.07,0,0,0,0-1.39,2.46,2.46,0,0,0-.4-1,2.62,2.62,0,0,0-2-.86,7.62,7.62,0,0,0-2.84.34,17.28,17.28,0,0,0-2.87,1.24c-1.92,1-3.86,2.13-5.83,3.2q-5.91,3.29-12.13,6.09l-12.39,5.63c-4.45,2-8.94,4-13.51,5.79s-9.19,3.44-13.88,4.92c-9.53,2.92-19.42,3.86-29.23,4.25a214.92,214.92,0,0,1-29.38-1q-7.32-.74-14.54-2l-3.62-.71-3.57-.87c-1.2-.27-2.37-.64-3.54-1s-2.35-.68-3.5-1.08c-12.44-3.89-24.68-9.07-33.19-15.62h0l-1.32-.81a153.81,153.81,0,0,1-13.12-8.79C226.57,583.75,224.31,581.94,222.05,580.15Z"/><path class="cls-1" d="M277,577.24c-1.33-.9-2.54-1.82-3.78-2.74-2.48-1.86-4.91-3.81-7.21-5.91A99.82,99.82,0,0,1,254,555.17c1.79,2.32,2.39,5.56,3.55,8.62,2.09,4.74,3.87,9.62,5.91,14.35A56.7,56.7,0,0,0,266.9,585a35,35,0,0,0,4.47,6.17,17.67,17.67,0,0,0,5.29,4.08,9.42,9.42,0,0,0,3,.82l.79.06h2.63c2.34,0,4.68-.14,7-.37,1.18-.11,2.35-.26,3.5-.47a16.53,16.53,0,0,0,3.32-.91,5,5,0,0,0,2-1.4,1.33,1.33,0,0,0,.08-1.65,6.73,6.73,0,0,0-1.63-1.73L295.29,588c-2.31-1.85-5-2.71-7.42-4.34-2-1.31-4.6-2.51-6.85-4l0,0C279.7,578.92,278.35,578.12,277,577.24Z"/><polygon class="cls-1" points="253.64 554.78 253.64 554.77 253.64 554.78 253.64 554.78"/><path class="cls-1" d="M177,640.66q4,13.14,8.39,26.16c2.92,8.68,5.87,17.37,9.1,25.91s6.94,16.93,10.63,25.32,7.49,16.73,11.35,25.06c7.65,16.69,16,33,24.06,49.66l-.12-.24c7.07,14.13,14.43,29.58,20.77,42l2.93,5.81c1,1.93,1.9,3.91,2.72,5.89,1.66,4,3,8,4.34,12,2.58,8.08,4.83,16.28,7.06,24.87,1.37,5.19,2.47,10.59,3.59,16s2.21,11,3.33,16.51,2.19,11.12,3.29,16.65l1.65,8.28c.28,1.37.55,2.74.83,4.1l.42,2a3.56,3.56,0,0,0,.57,1.6c.67,1.06,2.52.83,4.16.41a5.5,5.5,0,0,0,3.66-2.79c.72-1.17.36-3,.05-4.69s-.79-3.46-1.22-5.2c-.87-3.47-1.67-7-2.37-10.48s-1.5-7-2.29-10.42c-3.17-13.83-6.52-27.53-10.42-41-1-3.37-2-6.75-3.13-10.06s-2.3-6.67-3.48-10q-3.56-10-7.41-19.88c-5.17-13.21-10.74-26.37-17.16-39.33-7-13.8-13.84-27.78-20.49-41.82s-13.15-28.15-19.34-42.4-12.16-28.6-17.18-43.31c-2.47-7.35-4.74-14.77-6.88-22.2s-4.11-14.91-6-22.38c-2.6-10-5.19-20-7.43-29.62-.55-2.4-1.08-4.77-1.62-7.13l-.75-3.48a2.65,2.65,0,0,0-.5-1.27,3,3,0,0,0-1.19-.69,7.91,7.91,0,0,0-3.15-.18,6.53,6.53,0,0,0-2.92,1,4,4,0,0,0-1.16,2.72,14.09,14.09,0,0,0,0,3.18v0h0v0l0,.26a249.07,249.07,0,0,0,5.69,26.65C171.78,623.09,174.34,631.89,177,640.66Z"/><path class="cls-1" d="M163.89,588.41c.08.57.16,1.14.25,1.74C164.05,589.57,164,589,163.89,588.41Z"/><path class="cls-1" d="M255.46,459.41a33.77,33.77,0,0,0-8.16,5,35.2,35.2,0,0,0-3.57,3.34c-.54.6-1.08,1.21-1.57,1.85a12.35,12.35,0,0,0-.76,1.08,12.48,12.48,0,0,0-.74,1.25l-1.29,2.55c-.4.77-.75,1.46-1.14,2.12s-.78,1.33-1.62,1.53a1.23,1.23,0,0,1-.63,0,1.12,1.12,0,0,1-.57-.27,1.93,1.93,0,0,1-.5-1,13.52,13.52,0,0,1,.28-4.73c.19-.91.44-1.89.72-2.88s.64-2.11.86-2.8a97.17,97.17,0,0,1,7.92-18.12A57.67,57.67,0,0,0,249.85,430a96.8,96.8,0,0,0,.86-19.19,64,64,0,0,0-4.44-18.43c-1.2-3-2.5-5.9-4-8.79-.34-.74-.73-1.4-1.11-2.09s-.74-1.38-1.16-2a46.26,46.26,0,0,0-2.68-3.84,42.35,42.35,0,0,0-6.46-6.79,45.48,45.48,0,0,0-7.76-5.38l.16.1a57.65,57.65,0,0,0-15.6-5.54,20,20,0,0,0-2-.32,11.87,11.87,0,0,0-1.88-.12h-.94c-.32,0-.63.07-.94.1l-.93.12-.92.2a22.73,22.73,0,0,0-6.76,2.76c-1,.6-1.93,1.21-2.84,1.88-.46.32-.91.66-1.35,1l-.57.46c0-.14,0,1.51.13,2.61s.2,2.38.33,3.56q.4,3.56,1.08,7.1c.45,2.35,1.06,4.72,1.7,7.12s1.33,4.81,2.1,7.24c2.32,7.27,4.22,15.08,6.2,22.86s4.24,15.59,6.76,23.06c3.3,9.8,6.8,19.39,10.41,28.86l2.73,7.08c.92,2.36,1.84,4.71,2.8,7a63.57,63.57,0,0,0,7.22,12.66c2.87,3.8,6.4,7.18,10.42,8.94.5.17,1,.4,1.51.53l.76.19c.26.07.59.13.88.19,1.21.24,2.4.46,3.57.61a16.14,16.14,0,0,0,6.54-.23,11.28,11.28,0,0,0,2.83-1.24,15.31,15.31,0,0,0,2.51-2,9.19,9.19,0,0,0,2.68-5.3,9.49,9.49,0,0,0-.09-3.05,10,10,0,0,0-.41-1.52c-.07-.25-.19-.49-.28-.73l-.27-.53a2.49,2.49,0,0,0-1.6-1.16,3.77,3.77,0,0,0-2.28.22c-.05,0-.16.07-.18.1l-.06,0-.24.19a11.33,11.33,0,0,1-1,.73,9,9,0,0,1-2.47,1.12,6.54,6.54,0,0,1-1.49.25,6.77,6.77,0,0,1-.78,0,6.87,6.87,0,0,1-.87-.12,4.89,4.89,0,0,1-1.76-.72,3.44,3.44,0,0,1-1.29-1.33,4.74,4.74,0,0,1-.53-1.8,4.48,4.48,0,0,1,0-1,5,5,0,0,1,.09-.75,11,11,0,0,1,.79-2.47,16.61,16.61,0,0,1,2.58-4,20.58,20.58,0,0,1,3.49-3.06,39.42,39.42,0,0,1,3.74-2.33,57.75,57.75,0,0,1,7.87-3.54,25.47,25.47,0,0,1,8.84-1.69,57.25,57.25,0,0,1,8.62.73c2.77.37,5.56.93,8.07,1.08a41.49,41.49,0,0,0,7.85-.33c2.63-.35,5.27-.9,7.94-1.51s5.36-1.31,8.2-1.84a19.41,19.41,0,0,0,3.54-1,10.11,10.11,0,0,0,2.86-1.69,6.64,6.64,0,0,0,1.76-2.42,5.72,5.72,0,0,0,.37-1.39l0-.35,0-.52,0-.95a4,4,0,0,0-.11-1.25,1.91,1.91,0,0,0-.53-.82,11.35,11.35,0,0,0-2.83-1.83,27.63,27.63,0,0,0-7.22-2.46,31.63,31.63,0,0,0-7.74-.5c-1.32.05-2.62.18-4,.35l-4.08.6c-7.24,1.23-14.46,2.76-21.39,3.95l-10,1.8-4.74.89c-1.55.32-3.07.6-4.54,1l0,0h0l0,0Z"/><path class="cls-1" d="M254.73,459.71l-.34.15Z"/><path class="cls-1" d="M460.49,620.48c-.56,4.54-1.22,9.09-2.09,13.59-1.72,9-3.68,17.95-5.48,26.92-.9,4.48-1.78,9-2.48,13.47s-1,9-1.48,13.6q-1.23,13.66-2.2,27.37c-.31,4.56-.64,9.14-.82,13.68s-.44,9.19-.76,13.78c-.64,9.17-1.43,18.33-2.47,27.48-.54,4.57-1,9.18-2,13.75s-2.23,9-3.6,13.43l.08-.26c-2.24,7.61-5,15.36-7.87,22.85-1.43,3.73-2.83,7.41-4.19,11s-2.31,7.07-3.23,10.42c-4.45,16.87-8.5,32.51-11.25,50-1.88,10.52-4.25,21.47-6.58,32.51-.57,2.76-1.15,5.53-1.68,8.29a68.71,68.71,0,0,0-1.21,8.25c-.05,1.29,0,2.86.67,2.81a4.36,4.36,0,0,0,1.72,0c.64-.11,1.3-.27,2-.45l4-1.14a3.69,3.69,0,0,0,2.4-2.33c.32-.76.56-1.63.83-2.49a14.86,14.86,0,0,0,.53-2.5,48.76,48.76,0,0,0,.12-5.3c0-3.61,0-7.22.21-10.83.46-7.19,1.41-14.27,2.45-21.3a104.28,104.28,0,0,1,2.1-10.5c.82-3.45,1.64-6.87,2.38-10.31s1.41-6.88,2.08-10.35S424,859,424.9,855.51c1.71-6.88,3.84-13.65,6.11-20.35.57-1.66,1.12-3.35,1.75-5s1.3-3.33,2-5c1.36-3.28,2.79-6.52,4.09-9.79a67.48,67.48,0,0,0,3.28-9.93A96.72,96.72,0,0,0,443.69,795c.38-3.53.64-7.11,1-10.71a96.19,96.19,0,0,1,1.46-10.84c1.44-7.66,3.6-15.13,4-22.72.38-7.75.87-15.51,1.56-23.24C453,712,455.24,696.59,457,681.22c.46-3.84.79-7.67,1.24-11.56s1-7.7,1.54-11.54c1.11-7.68,2.32-15.32,3.54-23,2.41-15.22,4.82-30.41,7.24-45.69.64-5.09,1-10.22,1.61-15.31a66.16,66.16,0,0,1,1.21-7.61c.3-1.24.6-2.42.82-3.62a16.34,16.34,0,0,0,.34-3.48,3.64,3.64,0,0,0-.11-.72.66.66,0,0,0-.07-.21.47.47,0,0,0-.09-.12.44.44,0,0,0-.28-.07,1.46,1.46,0,0,0-.55.16,7.84,7.84,0,0,0-2.34,2.21,34.48,34.48,0,0,0-3.46,6c-.24.51-.47,1-.65,1.52s-.33,1.06-.47,1.6c-.28,1.08-.5,2.17-.72,3.26-.43,2.17-.8,4.3-1.15,6.39v0c-.06.95-.18,2.39-.35,4.18-.64,7.75-1.44,15.48-2.26,23.2C461.58,611.38,461.07,615.93,460.49,620.48Z"/></svg>